<?xml version="1.0" standalone="no"?>
<!DOCTYPE svg PUBLIC "-//W3C//DTD SVG 20010904//EN"
 "http://www.w3.org/TR/2001/REC-SVG-20010904/DTD/svg10.dtd">
<svg version="1.0" xmlns="http://www.w3.org/2000/svg"
 width="589.000000pt" height="589.000000pt" viewBox="0 0 589.000000 589.000000"
 preserveAspectRatio="xMidYMid meet">

<g transform="translate(0.000000,589.000000) scale(0.100000,-0.100000)"
fill="#000000" stroke="none">
<path d="M3038 5273 c7 -3 16 -2 19 1 4 3 -2 6 -13 5 -11 0 -14 -3 -6 -6z"/>
<path d="M2640 5245 c-10 -12 -8 -18 11 -35 13 -10 35 -19 50 -20 14 0 30 -5
36 -11 7 -7 35 -15 63 -20 42 -7 57 -5 86 12 19 10 48 19 64 19 17 0 30 3 30
6 0 15 -37 33 -65 34 -17 0 -36 5 -41 10 -6 6 -58 13 -116 15 -85 4 -108 2
-118 -10z"/>
<path d="M3110 5240 c47 -37 50 -41 44 -51 -4 -7 -10 -7 -17 0 -6 6 -20 11
-31 11 -16 0 -17 -3 -8 -12 7 -7 12 -21 12 -32 0 -17 2 -18 10 -6 8 13 12 12
24 -6 9 -12 29 -24 45 -27 17 -4 59 -20 94 -36 66 -31 167 -51 167 -34 0 6 -8
17 -17 25 -24 21 -148 95 -171 103 -11 3 -27 14 -37 25 -10 11 -26 20 -37 20
-10 0 -26 9 -35 20 -10 11 -29 20 -43 20 l-25 -1 25 -19z"/>
<path d="M2422 5123 c-31 -3 -46 -11 -58 -28 -14 -21 -20 -23 -71 -18 -48 5
-64 2 -114 -23 -38 -19 -59 -35 -59 -46 0 -12 -8 -18 -24 -18 -15 0 -26 -7
-29 -20 -3 -11 -14 -20 -25 -20 -22 0 -38 -16 -44 -45 -2 -13 -14 -22 -33 -25
-33 -6 -49 -40 -19 -40 16 0 15 -3 -5 -16 -14 -10 -21 -23 -18 -35 3 -10 -2
-20 -10 -23 -10 -4 -13 -14 -8 -35 5 -26 1 -35 -35 -68 -23 -21 -46 -49 -51
-62 -6 -14 -15 -21 -23 -18 -10 4 -17 -4 -21 -26 -4 -18 -11 -37 -16 -42 -13
-17 21 -73 88 -142 34 -36 63 -68 63 -70 0 -2 -9 -1 -21 2 -18 6 -20 4 -14
-17 4 -12 21 -42 37 -66 18 -26 28 -51 25 -63 -3 -10 -1 -21 4 -24 4 -3 8 -18
8 -33 -1 -15 4 -47 9 -72 10 -46 24 -186 23 -228 -1 -24 31 -91 49 -102 6 -4
13 -34 15 -66 5 -90 32 -143 49 -98 18 47 -18 164 -76 247 -11 16 -17 31 -13
35 9 9 64 -56 71 -85 3 -12 12 -24 20 -27 15 -6 20 25 15 97 -2 24 3 45 12 55
9 10 19 29 22 45 11 42 38 52 103 36 30 -7 59 -21 65 -31 7 -10 17 -18 22 -18
6 0 22 -10 37 -21 24 -19 25 -24 16 -53 -6 -17 -24 -46 -40 -64 -15 -18 -28
-39 -28 -47 0 -8 -4 -15 -9 -15 -11 0 -51 -80 -51 -103 0 -23 39 -22 57 1 13
16 14 16 11 -3 -2 -14 -12 -21 -33 -23 -16 -2 -32 -7 -35 -10 -11 -15 -50 -32
-50 -22 0 5 -4 10 -10 10 -5 0 -10 -4 -10 -9 0 -18 31 -41 55 -41 13 0 31 -10
40 -22 l16 -23 16 23 c19 27 34 28 51 2 7 -11 20 -20 30 -20 10 0 28 -11 39
-24 20 -23 64 -33 148 -35 49 -1 141 -10 155 -15 8 -3 24 -4 35 -3 17 2 21 -6
26 -53 5 -52 4 -56 -25 -82 -17 -15 -43 -32 -58 -38 -23 -10 -38 -33 -42 -64
-1 -5 9 -12 21 -17 17 -6 23 -4 28 11 3 10 15 22 25 25 36 11 121 127 176 239
45 92 66 109 121 100 35 -5 40 -9 40 -33 0 -15 8 -48 18 -74 14 -37 22 -47 41
-47 30 0 49 33 34 60 -8 16 -8 20 4 20 8 0 18 -4 21 -10 3 -5 28 -10 56 -10
27 0 49 5 49 10 0 6 6 10 13 10 7 0 20 9 29 19 21 25 118 45 189 38 31 -3 62
-2 68 2 13 8 5 41 -10 41 -5 0 -9 7 -9 15 0 9 -6 12 -15 9 -8 -4 -30 4 -48 18
-17 13 -45 30 -61 38 l-29 15 52 8 c39 7 51 12 47 23 -6 16 17 23 84 28 25 2
48 4 53 5 17 2 5 39 -20 63 -69 63 -106 71 -184 42 -27 -11 -93 -19 -173 -24
-124 -6 -130 -7 -152 -34 -29 -33 -31 -75 -3 -104 l20 -22 -21 -30 c-23 -33
-36 -37 -100 -35 -109 4 -110 4 -110 24 0 10 -13 33 -30 51 -16 18 -30 38 -30
45 0 27 -59 73 -102 80 -54 8 -228 94 -228 112 0 8 -13 13 -36 13 -22 0 -33 4
-29 11 4 6 21 9 39 8 54 -4 110 12 148 42 20 16 42 29 47 29 6 0 11 4 11 9 0
19 212 131 249 131 11 0 23 5 26 11 10 15 48 28 60 20 71 -44 171 -39 270 13
17 9 49 16 72 16 57 0 143 19 143 32 0 6 7 8 15 4 8 -3 30 3 49 13 31 18 38
18 83 5 l49 -14 13 -78 c17 -97 37 -169 56 -198 8 -13 15 -42 15 -66 0 -115
-9 -345 -15 -359 -3 -10 -2 -20 3 -23 20 -12 33 25 35 100 2 81 31 174 53 174
23 0 64 149 89 320 18 124 19 114 -15 153 -38 44 -38 55 3 53 31 -1 32 1 41
45 8 41 6 52 -14 84 -19 31 -20 39 -9 46 19 11 2 39 -34 57 -15 7 -27 21 -27
30 1 16 2 16 14 0 7 -10 21 -18 30 -18 9 0 16 8 16 18 -1 27 -27 55 -45 48
-12 -4 -19 3 -27 24 -7 22 -29 42 -77 71 -91 55 -85 52 -191 99 -52 24 -100
48 -106 55 -7 7 -25 10 -40 7 -19 -3 -25 -1 -20 7 5 7 0 11 -13 11 -11 0 -23
5 -27 11 -3 6 -25 19 -48 30 l-41 19 35 -4 c19 -3 55 -9 80 -14 25 -6 46 -9
48 -7 2 2 -16 15 -41 29 -38 22 -55 26 -129 26 -77 0 -87 -2 -107 -24 -27 -29
-48 -25 -48 10 0 20 4 24 28 24 15 0 34 6 42 14 7 8 24 12 38 10 35 -7 140 9
139 21 -1 22 -152 42 -205 27 -23 -7 -52 -2 -120 20 -120 38 -170 46 -163 26
4 -8 -2 -20 -13 -26 -15 -10 -32 -9 -82 4 -34 9 -66 19 -72 22 -5 4 -17 7 -25
8 -8 0 -36 4 -63 8 -32 6 -57 4 -77 -4 -32 -13 -114 -5 -104 11 8 14 -15 39
-35 37 -9 -1 -35 -3 -59 -5z m78 -98 c16 -8 41 -16 55 -17 31 -3 47 -19 36
-36 -8 -14 -100 -17 -184 -6 -42 5 -46 4 -40 -11 5 -16 2 -17 -28 -10 -47 10
-118 10 -156 1 -29 -8 -33 -6 -33 12 0 27 7 31 61 33 24 1 49 6 55 10 47 36
184 50 234 24z m145 5 c3 -5 1 -10 -4 -10 -6 0 -11 5 -11 10 0 6 2 10 4 10 3
0 8 -4 11 -10z m532 -66 c-3 -3 -12 -4 -19 -1 -8 3 -5 6 6 6 11 1 17 -2 13 -5z
m-1050 -20 c-3 -3 -12 -4 -19 -1 -8 3 -5 6 6 6 11 1 17 -2 13 -5z m893 -24
c-8 -5 -26 -10 -40 -10 -20 0 -22 2 -10 10 8 5 26 10 40 10 20 0 22 -2 10 -10z
m121 -20 c35 -12 78 -20 94 -20 37 1 71 1 113 -1 32 -1 42 -12 21 -25 -6 -3
-8 -15 -5 -27 3 -11 1 -28 -5 -38 -10 -20 -46 -20 -124 0 -22 6 -64 8 -93 4
-42 -5 -56 -2 -72 12 -19 17 -19 20 -4 44 16 24 16 26 -4 39 -12 8 -22 18 -22
23 0 14 33 11 101 -11z m-228 -19 c15 -1 27 -5 27 -11 0 -15 -83 -12 -105 4
-18 13 -17 14 15 11 19 -2 47 -4 63 -4z m165 -132 c25 -16 29 -34 8 -42 -14
-6 -110 0 -153 9 -21 4 -24 18 -10 41 10 17 125 11 155 -8z m-1143 -139 c3 -5
-1 -10 -9 -10 -8 0 -18 5 -21 10 -3 6 1 10 9 10 8 0 18 -4 21 -10z m865 -992
c22 -7 40 -19 40 -26 0 -16 -43 -6 -85 20 -36 22 -15 24 45 6z m685 -108 c-10
-11 -22 -17 -27 -14 -12 8 11 34 30 34 13 0 12 -3 -3 -20z m-925 -70 c0 -5 -4
-10 -10 -10 -5 0 -10 5 -10 10 0 6 5 10 10 10 6 0 10 -4 10 -10z"/>
<path d="M3745 5011 c-3 -5 -1 -12 5 -16 5 -3 10 1 10 9 0 18 -6 21 -15 7z"/>
<path d="M3620 4990 c0 -5 5 -10 11 -10 5 0 7 5 4 10 -3 6 -8 10 -11 10 -2 0
-4 -4 -4 -10z"/>
<path d="M3465 4980 c-8 -13 5 -13 25 0 13 8 13 10 -2 10 -9 0 -20 -4 -23 -10z"/>
<path d="M3663 4963 c-7 -2 -13 -9 -13 -15 0 -12 41 -6 41 7 1 12 -11 15 -28
8z"/>
<path d="M3900 4731 c0 -37 16 -81 30 -81 11 0 13 52 4 88 -9 33 -34 28 -34
-7z"/>
<path d="M1832 4738 c3 -7 13 -15 24 -17 16 -3 17 -1 5 13 -16 19 -34 21 -29
4z"/>
<path d="M3806 4726 c3 -9 11 -16 16 -16 13 0 5 23 -10 28 -7 2 -10 -2 -6 -12z"/>
<path d="M1773 4633 c-18 -7 -16 -33 2 -33 8 0 15 9 15 20 0 11 -1 20 -2 19
-2 0 -9 -3 -15 -6z"/>
<path d="M3565 3620 c3 -5 13 -10 21 -10 8 0 14 5 14 10 0 6 -9 10 -21 10 -11
0 -17 -4 -14 -10z"/>
<path d="M2180 3565 c0 -8 7 -15 15 -15 8 0 15 4 15 9 0 5 -7 11 -15 15 -9 3
-15 0 -15 -9z"/>
<path d="M3714 3456 c-4 -9 -4 -20 -1 -23 12 -11 88 -13 108 -3 25 14 24 25
-3 26 -13 0 -40 4 -60 8 -31 7 -39 5 -44 -8z"/>
<path d="M3830 3384 c0 -8 5 -12 10 -9 6 3 10 10 10 16 0 5 -4 9 -10 9 -5 0
-10 -7 -10 -16z"/>
<path d="M3177 3182 c-10 -2 -16 -9 -14 -15 4 -14 57 -22 57 -9 0 15 -24 29
-43 24z"/>
<path d="M3338 3123 c7 -3 16 -2 19 1 4 3 -2 6 -13 5 -11 0 -14 -3 -6 -6z"/>
<path d="M2790 3021 c0 -5 4 -11 10 -13 5 -1 11 -19 13 -38 4 -49 14 -60 45
-59 15 1 34 -1 43 -5 18 -8 28 2 34 35 4 17 2 19 -11 8 -12 -10 -19 -8 -37 10
-13 11 -28 21 -35 21 -6 0 -17 8 -24 18 -16 23 -38 36 -38 23z"/>
<path d="M2480 2995 c0 -8 -4 -15 -9 -15 -16 0 -41 -61 -35 -86 8 -31 24 -31
24 0 0 33 11 60 19 47 4 -6 7 8 8 29 1 22 0 40 -3 40 -2 0 -4 -7 -4 -15z"/>
<path d="M2516 2858 c-3 -16 -12 -28 -21 -28 -8 0 -15 -4 -15 -10 0 -5 7 -7
15 -4 9 4 15 0 15 -10 0 -9 6 -13 14 -10 11 4 66 -32 86 -57 9 -12 52 -31 78
-35 15 -3 34 -7 44 -10 26 -8 31 13 8 33 -21 18 -28 53 -10 53 6 0 13 -7 16
-15 8 -21 21 -19 29 5 8 24 22 25 47 3 13 -12 22 -13 29 -6 18 18 1 32 -49 38
-141 17 -217 38 -225 60 -3 7 -17 14 -30 17 -21 4 -26 0 -31 -24z"/>
<path d="M3350 2810 c-14 -4 -37 -11 -51 -14 -15 -3 -36 -19 -46 -36 -10 -16
-34 -41 -53 -55 -27 -20 -30 -26 -17 -31 18 -6 167 62 211 97 49 39 23 61 -44
39z"/>
<path d="M2226 2503 c-11 -11 -6 -33 7 -33 7 0 13 -10 14 -21 1 -12 11 -31 22
-43 12 -12 21 -27 21 -34 0 -6 11 -23 26 -37 14 -14 23 -29 19 -34 -3 -5 3
-12 13 -15 10 -4 25 -18 32 -31 7 -14 22 -25 32 -25 10 0 18 -4 18 -9 0 -5 23
-26 50 -46 28 -21 49 -39 47 -42 -7 -7 39 -53 52 -53 7 0 23 -12 36 -26 14
-15 25 -23 25 -18 0 6 15 11 33 12 17 1 37 10 44 18 6 9 16 13 22 10 11 -7 61
13 61 26 0 4 -12 8 -26 8 -15 0 -23 4 -18 11 4 6 -1 10 -12 8 -35 -5 -154 64
-220 127 -22 20 -49 43 -61 51 -13 9 -23 21 -23 28 0 7 -9 24 -20 38 -15 18
-17 27 -8 30 9 3 6 11 -9 26 -13 12 -23 30 -23 41 0 20 -16 29 -42 22 -20 -5
-23 -17 -8 -27 6 -3 10 -10 10 -16 0 -18 -23 -9 -65 26 -23 19 -45 31 -49 28z"/>
<path d="M1989 2403 c-8 -10 -21 -30 -28 -44 -7 -14 -24 -39 -37 -54 -13 -15
-24 -31 -24 -35 0 -4 -15 -11 -34 -14 -18 -4 -41 -15 -51 -26 -9 -10 -31 -22
-49 -25 -17 -4 -50 -13 -74 -21 -23 -8 -57 -14 -74 -14 -41 0 -87 -15 -173
-56 -38 -18 -83 -36 -100 -40 -16 -3 -61 -22 -99 -40 -38 -19 -75 -34 -82 -34
-7 0 -39 -12 -71 -26 -81 -36 -85 -38 -203 -74 -58 -17 -113 -36 -122 -41 -10
-5 -26 -9 -36 -9 -24 0 -154 -63 -171 -83 -7 -10 -22 -17 -32 -17 -10 0 -34
-11 -54 -24 -41 -28 -111 -30 -163 -3 -32 15 -32 15 -32 -9 0 -25 -9 -31 -26
-14 -18 18 -156 30 -195 17 -59 -21 -59 -20 -58 -130 1 -56 3 -94 6 -84 5 20
23 23 23 4 0 -8 -7 -36 -15 -63 -12 -41 -15 -160 -15 -736 l0 -688 1280 0
c704 0 1280 2 1280 5 0 7 -68 180 -90 230 -73 165 -240 701 -240 769 0 14 -9
31 -21 39 -15 11 -23 32 -30 88 -18 135 -61 403 -76 469 -7 36 -23 128 -34
205 -10 77 -23 165 -29 195 -30 174 -41 267 -38 330 1 38 3 70 2 70 0 0 -7 -8
-15 -17z"/>
<path d="M2253 2385 c0 -8 7 -15 15 -15 12 0 12 3 2 15 -7 8 -13 15 -15 15 -1
0 -2 -7 -2 -15z"/>
<path d="M3278 1968 c-8 -13 -20 -39 -28 -58 -13 -35 -50 -116 -109 -240 -47
-100 -110 -213 -132 -236 -10 -11 -23 -40 -28 -65 -5 -24 -12 -51 -15 -60 -5
-10 -1 -19 8 -22 9 -4 16 -15 16 -25 0 -25 31 -52 59 -52 21 0 23 -4 19 -50
-3 -50 -2 -51 22 -45 14 4 43 16 64 28 37 20 41 27 58 97 10 41 18 87 18 103
0 30 41 222 66 307 25 84 35 160 29 215 -15 133 -20 145 -47 103z"/>
<path d="M3460 1820 c0 -34 40 -147 65 -184 14 -20 25 -39 25 -42 0 -3 18 -41
40 -85 22 -44 40 -82 40 -85 0 -14 -59 43 -85 81 -16 25 -34 45 -39 45 -5 0
-6 -19 -3 -43 3 -24 9 -91 13 -150 8 -130 7 -133 -116 -223 -101 -74 -120 -98
-120 -152 0 -21 -6 -47 -14 -57 -10 -14 -11 -26 -4 -48 13 -35 6 -94 -22 -211
-21 -82 -21 -92 -7 -121 14 -30 14 -42 -3 -141 -23 -136 -27 -154 -55 -234
-12 -36 -25 -84 -29 -108 l-6 -42 634 0 634 0 16 34 c9 19 16 40 16 47 0 12
18 77 47 174 9 28 19 68 23 90 4 22 25 103 45 180 20 77 42 158 48 180 5 22
10 101 11 175 1 123 -1 139 -22 178 -12 23 -27 40 -32 37 -6 -4 -10 -1 -10 4
0 6 -7 11 -15 11 -8 0 -36 22 -62 49 -26 26 -76 71 -109 99 -34 28 -75 63 -90
78 -16 14 -45 37 -64 50 -19 13 -53 36 -75 52 -108 79 -295 189 -335 199 -34
8 -123 59 -195 110 -32 24 -67 43 -76 43 -10 0 -20 4 -23 9 -3 5 -15 11 -26
14 -15 4 -20 0 -20 -13z"/>
<path d="M2776 752 c-3 -6 -1 -14 5 -17 15 -10 25 3 12 16 -7 7 -13 7 -17 1z"/>
<path d="M2767 696 c-5 -14 10 -36 25 -36 4 0 8 11 8 25 0 27 -24 35 -33 11z"/>
</g>
</svg>
