<?xml version="1.0" standalone="no"?>
<!DOCTYPE svg PUBLIC "-//W3C//DTD SVG 20010904//EN"
 "http://www.w3.org/TR/2001/REC-SVG-20010904/DTD/svg10.dtd">
<svg version="1.0" xmlns="http://www.w3.org/2000/svg"
 width="800.000000pt" height="800.000000pt" viewBox="0 0 800.000000 800.000000"
 preserveAspectRatio="xMidYMid meet">

<g transform="translate(0.000000,800.000000) scale(0.100000,-0.100000)"
fill="#000000" stroke="none">
<path d="M3755 7974 l-30 -26 31 7 c22 4 35 1 44 -10 10 -12 10 -15 -2 -15
-35 0 -212 -67 -313 -118 -95 -48 -122 -67 -201 -146 -96 -97 -170 -212 -219
-341 -23 -61 -24 -79 -25 -258 -1 -232 2 -269 29 -327 20 -44 20 -45 1 -48
-10 -2 -24 -10 -31 -18 -16 -19 -38 -143 -38 -214 -1 -57 25 -181 54 -260 9
-25 16 -70 16 -100 -2 -70 12 -103 55 -126 33 -18 36 -18 66 -1 17 10 32 16
33 15 1 -2 16 -68 34 -148 34 -161 71 -280 107 -352 13 -26 24 -59 24 -72 0
-14 14 -41 30 -60 38 -43 214 -163 339 -231 53 -29 140 -77 194 -109 103 -59
108 -61 106 -48 -3 20 2 32 14 32 8 0 28 7 45 16 18 8 52 16 77 17 25 1 45 5
45 10 0 5 6 7 14 4 8 -3 35 8 60 24 26 16 55 29 66 29 10 0 20 5 22 11 3 9 24
16 54 18 7 1 14 10 17 21 3 11 12 20 20 20 8 0 22 11 31 25 9 14 21 23 26 20
6 -4 11 -1 11 4 1 6 2 15 3 19 0 5 9 16 19 26 9 10 17 22 17 27 0 5 5 9 11 9
6 0 9 -7 5 -15 -3 -8 -1 -15 4 -15 5 0 9 12 9 28 -1 47 13 85 51 142 83 123
150 293 130 329 -8 14 -9 14 -15 -1 -4 -10 -5 -25 -1 -33 3 -8 0 -14 -7 -12
-7 1 -11 -7 -10 -21 2 -16 -1 -21 -9 -16 -8 5 -9 2 -5 -9 3 -10 2 -17 -4 -17
-6 0 -7 -6 -3 -12 5 -8 0 -7 -11 2 -10 8 -16 10 -12 3 4 -6 3 -14 -3 -18 -5
-3 -10 -13 -10 -21 0 -8 5 -12 10 -9 6 3 10 2 10 -4 0 -16 -40 -8 -41 9 0 10
-3 9 -9 -5 -7 -19 -8 -19 -15 -2 -4 10 -13 16 -20 13 -8 -3 -11 2 -8 14 3 10
0 21 -6 24 -13 9 -33 -29 -29 -56 2 -12 -3 -23 -9 -25 -8 -3 -13 5 -14 19 -1
21 -2 21 -7 3 -8 -22 -52 -34 -52 -14 0 7 -3 9 -7 6 -3 -4 3 -18 16 -30 l21
-24 -20 -25 c-11 -15 -20 -31 -20 -38 0 -6 -5 -8 -11 -4 -7 4 -10 1 -7 -7 8
-23 -15 -39 -30 -20 -7 9 -11 11 -8 4 8 -15 -4 -44 -15 -37 -5 3 -9 -1 -9 -10
0 -8 3 -16 8 -19 4 -2 1 -2 -5 -1 -7 2 -13 -3 -13 -10 0 -9 -7 -12 -21 -9 -14
4 -19 12 -16 24 3 11 3 19 1 19 -8 0 -41 -37 -47 -55 -12 -29 -17 -12 -8 23 7
24 6 30 -4 26 -7 -3 -16 -20 -20 -37 -6 -29 -7 -30 -15 -11 -9 24 -36 38 -45
24 -4 -6 -1 -10 4 -10 6 0 11 -7 11 -15 0 -18 -16 -20 -23 -2 -4 9 -6 9 -6 -1
-1 -8 -9 -10 -26 -6 -15 4 -32 1 -40 -6 -11 -9 -15 -9 -15 -1 0 7 -6 11 -12 9
-25 -4 -57 13 -51 28 3 10 -2 14 -18 14 -12 0 -20 -3 -16 -6 3 -4 0 -13 -8
-20 -15 -15 -29 -19 -21 -5 3 4 -4 17 -15 27 -18 16 -19 16 -13 1 4 -13 2 -16
-9 -11 -8 3 -18 17 -22 32 -4 15 -9 22 -12 15 -2 -7 -11 -9 -19 -6 -13 5 -13
7 -2 14 10 7 9 9 -4 9 -10 0 -18 4 -18 10 0 5 -7 7 -15 4 -14 -6 -19 7 -18 44
1 10 -2 10 -13 1 -11 -9 -14 -8 -14 4 0 8 -7 17 -15 21 -8 3 -15 15 -15 26 0
11 -7 20 -15 20 -9 0 -15 6 -14 13 2 13 -4 33 -27 82 -7 17 -14 26 -14 20 0
-5 -4 -4 -9 4 -7 11 -11 10 -20 -7 -9 -16 -7 -24 6 -38 16 -15 16 -17 -2 -30
-10 -8 -22 -14 -26 -14 -14 0 -31 30 -25 45 3 9 -3 19 -15 26 -11 6 -18 17
-15 24 3 8 -6 18 -22 24 -32 14 -82 98 -82 139 0 15 -5 33 -11 39 -8 8 -8 13
0 17 17 11 13 36 -6 37 -12 0 -14 2 -5 6 10 4 8 9 -7 20 -12 8 -21 22 -21 31
-1 20 -34 62 -50 62 -6 0 -10 8 -8 18 2 11 -3 16 -14 14 -12 -2 -16 2 -12 13
4 9 -4 23 -20 36 -14 11 -26 28 -26 37 0 9 -7 30 -15 45 -8 15 -10 25 -6 22
14 -8 19 66 6 79 -6 6 -12 29 -13 51 -1 22 -2 48 -2 57 -2 28 33 67 58 68 13
0 35 -9 49 -20 14 -11 37 -20 52 -20 14 0 38 -6 52 -14 32 -16 213 -30 204
-16 -3 6 3 10 14 10 11 0 28 8 38 19 21 22 56 41 75 41 9 0 9 -3 -2 -10 -8 -5
-11 -10 -7 -10 4 0 3 -9 -3 -21 -10 -17 -8 -24 12 -41 19 -17 23 -29 22 -80
-1 -59 -1 -60 -57 -115 -46 -45 -57 -63 -63 -99 -3 -24 -9 -42 -13 -41 -14 4
-65 -39 -87 -74 -16 -25 -22 -49 -20 -69 4 -38 13 -48 45 -53 13 -2 32 -13 42
-25 9 -12 20 -22 22 -22 14 0 65 -59 77 -87 7 -18 16 -31 20 -28 4 2 17 -7 29
-21 12 -14 25 -23 29 -20 3 4 0 12 -6 18 -15 15 -15 38 -1 38 7 0 18 8 25 18
13 16 14 16 8 -3 -5 -15 -4 -17 5 -9 14 13 3 47 -13 41 -21 -8 -46 13 -46 38
0 25 23 35 35 15 4 -6 11 -5 20 4 10 9 40 14 97 14 46 0 96 5 112 11 16 7 42
9 58 6 16 -4 28 -2 28 3 0 5 23 10 50 10 28 0 50 -4 50 -8 0 -4 12 -6 26 -4
34 3 44 -24 16 -46 -21 -18 -27 -60 -7 -60 5 1 26 19 45 42 53 62 81 88 97 88
8 0 11 -4 8 -10 -3 -5 -2 -18 4 -27 11 -20 11 -21 12 66 0 43 13 47 21 7 6
-33 25 -28 32 8 9 48 -11 92 -83 179 -63 78 -120 127 -146 127 -21 0 -9 -20
45 -80 36 -39 41 -50 37 -81 -4 -27 0 -40 14 -49 10 -8 16 -17 14 -20 -3 -4 7
-12 20 -18 32 -15 33 -36 2 -29 -26 7 -41 -1 -50 -25 -5 -15 -19 -18 -87 -18
-51 0 -89 -5 -103 -14 -34 -21 -166 -29 -208 -13 -23 10 -53 12 -96 8 -40 -4
-64 -3 -67 4 -2 5 -5 4 -5 -2 -1 -7 -7 -13 -15 -13 -23 0 -36 23 -21 37 9 9
16 9 20 2 4 -6 11 -6 18 -1 7 5 37 10 67 12 30 1 66 4 80 5 14 1 50 3 80 4 42
1 51 4 40 12 -12 8 -10 9 8 4 28 -8 63 3 61 18 -3 25 13 55 26 51 7 -3 15 3
18 13 4 17 5 17 6 0 1 -25 21 -11 21 15 0 12 8 30 18 41 16 20 16 20 -8 14
-14 -4 -30 -7 -37 -7 -7 0 -28 -14 -48 -31 -32 -29 -38 -31 -60 -19 -12 7 -28
9 -34 6 -14 -9 -51 11 -73 39 -24 31 -66 38 -73 14 -7 -22 -42 -25 -67 -5 -12
9 -18 27 -18 55 0 32 4 41 18 41 30 0 45 17 48 55 2 21 10 48 18 61 9 12 21
55 27 94 10 63 8 81 -11 156 -19 73 -21 89 -10 110 8 13 19 24 26 24 7 0 12 9
11 20 -1 11 -7 20 -14 20 -7 0 -13 6 -13 13 0 9 -3 8 -9 -2 -10 -15 -31 -7
-31 12 0 15 -36 31 -123 54 -37 11 -66 21 -63 23 2 3 -18 3 -45 2 -33 -3 -49
0 -49 8 0 12 -24 9 -66 -7 -13 -5 -15 -3 -9 8 7 11 6 12 -7 2 -8 -7 -17 -10
-21 -7 -3 3 -22 1 -41 -6 -29 -9 -39 -9 -50 3 -8 8 -11 18 -7 23 12 13 21 84
12 84 -5 0 -14 -7 -21 -15 -24 -29 -40 -18 -36 25 2 25 0 40 -8 41 -6 0 -1 4
12 10 13 5 21 13 17 18 -3 6 -13 7 -22 4 -12 -5 -11 -1 5 15 14 14 20 30 17
50 -3 26 1 31 28 41 18 6 22 9 10 7 -15 -3 -20 0 -16 10 3 8 0 14 -7 14 -6 0
-8 5 -4 11 4 8 9 7 15 -2 6 -11 11 -11 21 -1 6 6 8 12 4 12 -5 0 -3 7 4 15 11
13 15 13 21 3 7 -10 9 -9 9 3 0 9 9 24 20 34 19 17 20 17 20 1 0 -10 5 -14 11
-11 6 4 8 14 5 22 -3 8 -1 11 4 8 6 -3 10 -2 10 3 0 4 28 16 63 26 34 10 87
26 117 35 30 10 71 23 90 29 66 21 298 15 325 -8 8 -7 19 -9 25 -5 5 3 10 1
10 -6 0 -8 4 -8 15 1 12 10 15 10 15 -4 0 -16 9 -19 47 -17 11 1 24 -3 28 -9
3 -5 11 -8 16 -5 5 4 9 1 9 -4 0 -6 11 -11 25 -11 14 0 29 -8 35 -20 10 -19
11 -19 31 1 20 20 46 21 42 1 -2 -6 3 -9 11 -6 10 4 12 -2 9 -19 -4 -20 0 -25
26 -30 23 -5 31 -12 31 -27 0 -12 5 -18 10 -15 6 3 10 -1 10 -9 0 -8 6 -21 14
-29 17 -17 37 -83 30 -101 -3 -7 2 -19 10 -26 9 -7 13 -16 10 -21 -3 -5 -2 -9
3 -9 4 0 14 -4 22 -9 13 -8 13 -12 1 -26 -12 -14 -11 -16 11 -10 28 7 66 -25
54 -45 -11 -18 -16 -80 -6 -80 5 0 7 -10 3 -22 -3 -14 -2 -19 6 -14 8 5 12 -1
12 -16 1 -13 7 -34 15 -48 23 -40 19 -60 -10 -58 -16 2 -24 7 -21 15 3 7 1 13
-4 13 -5 0 -7 7 -4 15 4 8 1 22 -6 30 -7 9 -10 18 -6 22 3 3 0 16 -7 27 -12
19 -17 49 -20 109 -1 13 -10 17 -35 17 -22 0 -31 4 -26 12 4 6 3 8 -4 5 -7 -5
-4 -19 8 -45 21 -42 18 -52 -7 -30 -38 33 -94 39 -233 26 -47 -5 -98 -10 -114
-12 -16 -1 -34 -10 -41 -19 -7 -9 -22 -17 -35 -17 -26 0 -63 -38 -56 -57 3 -7
1 -13 -4 -13 -6 0 -10 -4 -10 -10 0 -5 7 -10 16 -10 9 0 21 -13 27 -30 6 -16
15 -30 20 -30 5 0 2 -12 -8 -26 -27 -42 -36 -82 -19 -88 8 -3 14 -9 13 -13 -2
-15 13 -53 21 -53 5 0 10 10 12 23 2 16 11 23 31 25 15 2 27 -1 27 -7 0 -5
-12 -11 -27 -13 l-28 -4 40 -24 c52 -33 64 -35 175 -35 80 0 102 4 139 24 30
16 40 25 31 31 -19 11 17 21 72 19 51 -2 70 5 62 25 -3 8 4 16 18 20 35 9 38
8 38 -16 0 -12 3 -18 7 -14 14 14 38 -121 37 -211 -1 -70 2 -93 12 -93 7 0 16
5 19 10 3 6 -1 10 -10 10 -13 0 -15 5 -9 18 4 9 9 72 10 139 3 127 10 155 45
173 16 9 23 7 39 -12 l19 -23 1 48 c0 55 -11 59 -51 21 l-28 -26 17 35 c9 19
20 33 24 31 4 -3 9 0 12 5 3 5 0 11 -8 14 -12 5 -12 16 0 79 8 40 13 87 12
103 -1 17 1 56 5 87 7 48 4 67 -18 130 -14 40 -27 82 -29 93 -1 11 -8 36 -14
55 -6 19 -14 79 -17 133 -7 101 -20 140 -61 184 -13 14 -37 51 -55 82 -31 56
-91 121 -111 121 -27 0 -178 83 -227 125 -29 25 -65 48 -79 51 -15 3 -49 13
-76 21 -74 23 -209 23 -280 0 -55 -18 -61 -18 -93 -3 -18 9 -42 16 -53 16 -10
0 -22 5 -25 10 -10 17 -39 10 -70 -16z m705 -658 c0 -2 -7 -6 -15 -10 -8 -3
-15 -1 -15 4 0 6 7 10 15 10 8 0 15 -2 15 -4z m57 -571 c0 -10 -6 -14 -16 -10
-14 4 -14 4 0 -8 12 -9 13 -15 5 -23 -12 -11 -29 -11 -75 1 -25 7 -25 8 -6 16
11 6 31 16 45 24 32 19 47 19 47 0z m-521 -10 c-8 -8 -16 -15 -19 -15 -2 0 -4
7 -4 15 0 8 9 15 19 15 17 0 18 -2 4 -15z m599 -35 c-16 -4 -39 -8 -50 -8
l-20 -1 20 9 c11 5 34 8 50 8 l30 0 -30 -8z m-887 -9 c11 -7 10 -10 -3 -15
-27 -10 -50 -7 -71 9 -18 13 -16 14 21 15 22 0 46 -4 53 -9z m762 -31 l25 -8
-25 -1 c-14 0 -32 4 -40 9 -13 9 -13 10 0 9 8 -1 26 -5 40 -9z m344 -32 c-3
-5 -12 -4 -20 3 -7 6 -11 15 -8 21 3 5 12 4 20 -3 7 -6 11 -15 8 -21z m-79
-28 c-3 -5 -10 -10 -16 -10 -5 0 -9 5 -9 10 0 6 7 10 16 10 8 0 12 -4 9 -10z
m-925 -15 c39 -20 38 -25 -5 -25 -28 0 -35 4 -35 20 0 24 3 24 40 5z m663 -21
c44 -4 77 -24 40 -24 -12 0 -24 -4 -27 -9 -3 -4 -17 -6 -31 -4 -13 3 -22 9
-19 14 3 5 -10 9 -28 9 -31 1 -32 2 -14 15 10 8 23 12 29 8 5 -3 28 -7 50 -9z
m-1368 -45 c0 -15 7 -26 20 -30 13 -5 6 -7 -18 -6 -34 0 -38 3 -33 21 3 12 6
27 6 34 0 8 6 12 13 10 6 -3 12 -16 12 -29z m753 16 c19 -5 21 -9 11 -21 -13
-16 -33 -19 -24 -4 7 11 -10 14 -72 11 -53 -3 -57 16 -5 22 40 4 54 2 90 -8z
m-43 -545 c3 -5 -1 -10 -9 -10 -9 0 -16 5 -16 10 0 6 4 10 9 10 6 0 13 -4 16
-10z m-65 -30 c0 -5 -5 -10 -11 -10 -5 0 -7 5 -4 10 3 6 8 10 11 10 2 0 4 -4
4 -10z m139 -217 c2 -2 -3 -3 -11 -3 -9 0 -19 7 -22 16 -6 15 -4 15 11 3 10
-7 20 -15 22 -16z m804 -159 c4 -1 12 -2 18 -3 5 0 7 -6 4 -11 -4 -6 -10 -8
-15 -5 -4 3 -11 -5 -15 -18 -4 -13 -8 -17 -12 -9 -2 6 -13 12 -24 12 -18 0
-19 1 -3 25 9 14 21 22 28 18 6 -4 14 -8 19 -9z"/>
<path d="M4045 6750 c3 -5 8 -10 11 -10 2 0 4 5 4 10 0 6 -5 10 -11 10 -5 0
-7 -4 -4 -10z"/>
<path d="M4840 6220 c0 -16 5 -30 10 -30 6 0 10 14 10 30 0 17 -4 30 -10 30
-5 0 -10 -13 -10 -30z"/>
<path d="M4841 6165 c1 -11 5 -31 9 -45 8 -24 8 -24 9 5 0 17 -4 37 -9 45 -8
12 -10 11 -9 -5z"/>
<path d="M4560 5868 c0 -15 5 -30 11 -33 16 -11 17 -2 3 30 l-13 30 -1 -27z"/>
<path d="M4822 5800 c0 -14 2 -19 5 -12 2 6 2 18 0 25 -3 6 -5 1 -5 -13z"/>
<path d="M4018 5773 c7 -3 16 -2 19 1 4 3 -2 6 -13 5 -11 0 -14 -3 -6 -6z"/>
<path d="M4158 5763 c7 -3 16 -2 19 1 4 3 -2 6 -13 5 -11 0 -14 -3 -6 -6z"/>
<path d="M3958 5683 c-15 -4 -15 -6 3 -24 10 -10 27 -19 37 -19 14 -1 14 -3
-6 -20 -21 -17 -21 -19 -6 -35 13 -13 29 -16 68 -12 75 7 143 16 187 26 22 5
48 7 59 4 24 -6 26 9 4 28 -11 9 -55 14 -138 15 -99 2 -130 7 -157 22 -19 10
-42 17 -51 15z"/>
<path d="M4550 5648 c-12 -22 -12 -22 6 -6 10 10 15 20 12 24 -4 3 -12 -5 -18
-18z"/>
<path d="M4025 5440 c3 -5 8 -10 11 -10 2 0 4 5 4 10 0 6 -5 10 -11 10 -5 0
-7 -4 -4 -10z"/>
<path d="M4055 5411 c-3 -5 -1 -12 4 -15 13 -8 42 4 35 15 -7 12 -31 12 -39 0z"/>
<path d="M3291 5263 c-12 -10 -45 -52 -74 -93 -44 -63 -69 -86 -152 -142 -55
-37 -111 -75 -125 -85 -14 -10 -61 -29 -105 -44 -44 -14 -118 -46 -165 -71
-131 -71 -335 -162 -442 -196 -53 -17 -132 -49 -175 -70 -43 -22 -121 -51
-173 -66 -52 -15 -125 -43 -161 -63 -83 -45 -174 -124 -198 -172 -24 -47 -48
-171 -57 -291 -5 -63 -14 -111 -29 -145 -34 -75 -124 -357 -146 -454 -11 -47
-22 -144 -26 -216 -6 -129 -6 -131 -49 -216 -39 -75 -44 -94 -44 -150 0 -35 9
-98 20 -139 27 -105 27 -144 -10 -460 -6 -52 -21 -151 -35 -220 -31 -165 -61
-352 -75 -475 -6 -55 -19 -143 -30 -195 -18 -88 -19 -137 -16 -670 2 -316 7
-587 11 -603 l7 -27 1502 2 1501 3 16 180 c24 263 42 601 35 664 -3 31 -10
128 -16 216 -31 528 -95 1196 -161 1690 -20 147 -88 484 -154 760 -67 278
-178 723 -211 844 -19 68 -32 126 -30 129 3 2 14 -13 25 -35 45 -85 17 -12
-48 126 -74 157 -82 177 -142 376 -45 149 -54 210 -41 278 10 51 6 56 -27 30z"/>
<path d="M4580 5110 c-6 -11 -8 -20 -6 -20 3 0 10 9 16 20 6 11 8 20 6 20 -3
0 -10 -9 -16 -20z"/>
<path d="M4718 4990 c4 -66 11 -87 73 -213 38 -77 74 -165 81 -196 6 -31 35
-114 63 -186 73 -183 149 -404 201 -585 25 -85 58 -193 74 -240 45 -132 100
-446 125 -715 18 -194 18 -264 1 -378 -9 -59 -12 -141 -9 -245 5 -151 7 -160
40 -242 20 -47 40 -98 45 -115 6 -16 12 -196 13 -400 3 -279 8 -392 20 -460 8
-49 20 -151 26 -225 5 -74 17 -159 25 -189 12 -43 14 -81 9 -181 l-7 -126 36
-97 c42 -111 43 -129 15 -168 l-20 -29 499 0 499 0 7 46 c11 83 7 113 -25 177
-18 34 -42 90 -55 125 -22 56 -23 70 -14 125 12 75 12 184 0 252 -5 28 -18
178 -30 335 -11 157 -38 429 -60 605 -42 344 -54 467 -70 755 -14 239 -26 353
-56 525 -13 77 -38 230 -54 340 -17 110 -46 290 -65 400 -19 110 -46 279 -60
375 -37 256 -57 306 -160 397 -64 58 -249 145 -670 318 -310 127 -396 172
-455 237 l-46 50 4 -72z"/>
<path d="M4330 4783 c-46 -8 -119 -36 -114 -45 9 -14 -30 4 -43 20 -11 13 -17
12 -50 -10 -21 -13 -55 -36 -75 -49 -21 -13 -38 -27 -38 -30 0 -3 24 -11 53
-18 48 -10 56 -16 75 -54 12 -23 38 -67 57 -97 41 -66 45 -117 15 -229 -13
-48 -20 -107 -20 -163 0 -54 -4 -88 -10 -88 -13 0 -5 -229 10 -280 14 -50 13
-80 -5 -80 -12 0 -15 -25 -14 -156 0 -85 6 -201 14 -257 8 -56 15 -125 15
-154 0 -41 4 -53 18 -56 16 -4 16 -5 0 -6 -14 -1 -18 -10 -18 -45 0 -34 4 -46
18 -49 16 -4 16 -5 0 -6 -15 -1 -18 -10 -18 -51 0 -27 3 -50 8 -50 4 0 6 -33
4 -74 -3 -58 0 -77 13 -90 9 -9 12 -16 6 -16 -6 0 -11 -18 -11 -40 0 -25 5
-40 13 -40 8 0 7 -3 -3 -10 -13 -8 -15 -71 -15 -472 1 -275 6 -522 13 -608 10
-117 17 -1175 9 -1345 0 -16 0 -53 1 -82 l2 -51 251 0 c212 0 250 2 245 14 -3
8 -1 14 4 14 6 0 10 -6 10 -14 0 -10 19 -13 83 -12 45 0 88 5 95 10 8 5 18 4
25 -3 12 -12 58 -15 54 -3 -1 4 2 7 8 7 5 0 9 -3 8 -7 -1 -3 27 -6 62 -6 53 1
65 4 66 17 0 12 2 11 9 -4 8 -18 9 -18 9 5 1 25 -40 424 -59 573 -5 45 -10 85
-10 89 0 4 -7 5 -15 2 -10 -4 -15 0 -15 15 0 23 15 28 24 9 3 -7 4 5 3 27 -1
26 -6 39 -14 38 -7 -2 -13 6 -13 18 0 11 5 17 10 14 6 -4 10 10 9 37 -1 24 -3
35 -6 25 -5 -20 -23 -13 -23 9 0 8 7 14 15 14 8 0 15 6 15 14 0 8 -7 21 -15
30 -17 17 -20 36 -5 36 6 0 10 14 10 30 0 17 -3 30 -8 30 -4 0 -7 19 -7 42 -1
129 -29 338 -48 350 -9 6 -9 8 -1 8 8 0 9 11 4 34 -4 19 -5 37 -2 40 3 4 1 6
-4 6 -8 0 -10 18 -14 107 0 11 -9 90 -21 175 -11 84 -21 167 -24 183 -2 17
-11 82 -19 145 -9 63 -16 121 -16 128 0 7 -8 12 -17 10 -10 -2 -19 5 -21 16
-3 14 0 17 12 13 18 -7 18 -13 -1 123 -3 25 -8 39 -10 32 -6 -16 -23 -5 -23
15 0 10 6 13 16 9 12 -5 15 -2 10 10 -3 8 -6 24 -6 35 0 12 -5 16 -15 13 -11
-4 -15 0 -15 16 0 14 5 20 13 17 9 -3 12 5 9 29 -2 19 -8 31 -13 28 -5 -3 -12
3 -16 12 -4 10 -2 19 5 22 7 2 12 17 12 33 0 18 -4 28 -10 24 -6 -3 -13 2 -17
11 -4 10 -2 19 5 22 17 5 15 49 -3 56 -17 6 -21 36 -5 36 6 0 10 11 10 25 0
14 -4 25 -9 25 -13 0 -21 38 -8 43 7 2 5 17 -6 44 -10 26 -12 43 -6 45 7 2 6
14 -2 33 -17 42 -19 55 -8 55 6 0 7 4 4 10 -5 8 -35 234 -35 268 0 6 -8 12
-17 13 -11 0 -13 3 -5 6 7 2 12 22 12 44 0 30 -4 39 -17 39 -14 0 -15 2 -4 9
10 7 12 18 5 47 -5 22 -9 46 -9 54 -8 104 -46 300 -58 297 -6 -1 -13 6 -15 17
-2 11 0 16 7 12 16 -10 14 14 -4 48 -8 15 -15 37 -15 48 0 28 -33 118 -43 118
-4 0 -6 4 -2 10 3 5 -12 44 -33 87 -22 43 -45 96 -52 118 -7 22 -16 44 -21 50
-15 15 -10 158 7 214 8 30 26 64 39 77 l24 24 -32 24 c-18 14 -44 29 -58 34
-32 13 -116 21 -149 15z m-5 -83 c-3 -5 -14 -10 -23 -10 -15 0 -15 2 -2 10 20
13 33 13 25 0z m55 -10 c0 -5 -2 -10 -4 -10 -3 0 -8 5 -11 10 -3 6 -1 10 4 10
6 0 11 -4 11 -10z m57 -16 c-3 -3 -12 -4 -19 -1 -8 3 -5 6 6 6 11 1 17 -2 13
-5z m-77 -8 c0 -9 -30 -14 -35 -6 -4 6 3 10 14 10 12 0 21 -2 21 -4z m10 -46
c-19 -13 -30 -13 -30 0 0 6 10 10 23 10 18 0 19 -2 7 -10z m30 -44 c0 -12 -10
-14 -38 -7 -2 1 0 6 3 11 9 15 35 12 35 -4z m40 -26 c0 -5 -2 -10 -4 -10 -3 0
-8 5 -11 10 -3 6 -1 10 4 10 6 0 11 -4 11 -10z m-20 -31 c0 -11 -27 -12 -34 0
-3 4 -3 11 0 14 8 8 34 -3 34 -14z m10 -49 c0 -5 -7 -10 -15 -10 -8 0 -15 5
-15 10 0 6 7 10 15 10 8 0 15 -4 15 -10z m-53 -66 c-3 -3 -12 -4 -19 -1 -8 3
-5 6 6 6 11 1 17 -2 13 -5z m-37 -49 c0 -8 -4 -15 -10 -15 -5 0 -10 7 -10 15
0 8 5 15 10 15 6 0 10 -7 10 -15z m60 0 c0 -8 -4 -15 -10 -15 -5 0 -10 7 -10
15 0 8 5 15 10 15 6 0 10 -7 10 -15z m90 -6 c0 -11 -4 -17 -10 -14 -5 3 -10
13 -10 21 0 8 5 14 10 14 6 0 10 -9 10 -21z m-123 -35 c-3 -3 -12 -4 -19 -1
-8 3 -5 6 6 6 11 1 17 -2 13 -5z m-29 -41 c-2 -10 -7 -18 -12 -18 -5 0 -10 8
-12 18 -1 9 4 17 13 17 8 0 13 -7 11 -17z m48 -20 c-11 -11 -19 6 -11 24 8 17
8 17 12 0 3 -10 2 -21 -1 -24z m-112 12 c-4 -8 -10 -15 -15 -15 -4 0 -6 7 -3
15 4 8 10 15 15 15 4 0 6 -7 3 -15z m246 -11 c0 -8 -4 -14 -9 -14 -11 0 -22
26 -14 34 9 9 23 -3 23 -20z m-220 -26 c0 -18 -2 -20 -9 -8 -6 8 -7 18 -5 22
9 14 14 9 14 -14z m67 -4 c-3 -3 -12 -4 -19 -1 -8 3 -5 6 6 6 11 1 17 -2 13
-5z m-97 -39 c0 -8 -4 -15 -10 -15 -5 0 -10 7 -10 15 0 8 5 15 10 15 6 0 10
-7 10 -15z m60 0 c0 -8 -4 -15 -10 -15 -5 0 -10 7 -10 15 0 8 5 15 10 15 6 0
10 -7 10 -15z m60 -5 c0 -11 -4 -20 -10 -20 -5 0 -10 9 -10 20 0 11 5 20 10
20 6 0 10 -9 10 -20z m153 -4 c6 -16 -2 -28 -14 -20 -12 7 -11 34 0 34 5 0 11
-6 14 -14z m-72 -39 c-8 -8 -11 -7 -11 4 0 20 13 34 18 19 3 -7 -1 -17 -7 -23z
m-174 7 c-3 -3 -12 -4 -19 -1 -8 3 -5 6 6 6 11 1 17 -2 13 -5z m58 -3 c3 -5 1
-12 -4 -15 -5 -3 -11 1 -15 9 -6 16 9 21 19 6z m172 -17 c-3 -3 -12 -4 -19 -1
-8 3 -5 6 6 6 11 1 17 -2 13 -5z m-257 -30 c0 -14 -12 -19 -23 -8 -9 9 4 35
14 28 5 -3 9 -12 9 -20z m60 0 c0 -8 -7 -14 -15 -14 -15 0 -21 21 -9 33 10 9
24 -2 24 -19z m60 -4 c0 -19 -11 -26 -23 -14 -8 8 3 34 14 34 5 0 9 -9 9 -20z
m67 14 c-3 -3 -12 -4 -19 -1 -8 3 -5 6 6 6 11 1 17 -2 13 -5z m103 -25 c0 -11
-4 -17 -10 -14 -5 3 -10 13 -10 21 0 8 5 14 10 14 6 0 10 -9 10 -21z m44 5 c3
-8 2 -12 -4 -9 -6 3 -10 10 -10 16 0 14 7 11 14 -7z m-104 -14 c0 -11 -4 -20
-10 -20 -5 0 -10 9 -10 20 0 11 5 20 10 20 6 0 10 -9 10 -20z m-60 -16 c0 -8
-4 -12 -10 -9 -5 3 -10 13 -10 21 0 8 5 12 10 9 6 -3 10 -13 10 -21z m-85 -14
c-6 -9 -9 -9 -16 1 -10 17 0 34 13 21 6 -6 7 -16 3 -22z m-58 14 c-3 -3 -12
-4 -19 -1 -8 3 -5 6 6 6 11 1 17 -2 13 -5z m250 -20 c-3 -3 -12 -4 -19 -1 -8
3 -5 6 6 6 11 1 17 -2 13 -5z m-277 -30 c0 -16 -16 -19 -25 -4 -8 13 4 32 16
25 5 -4 9 -13 9 -21z m56 -9 c-8 -21 -25 -11 -21 13 2 9 4 19 4 22 1 2 6 -1
12 -7 7 -7 9 -19 5 -28z m64 11 c0 -24 -17 -28 -23 -6 -3 13 0 20 9 20 8 0 14
-6 14 -14z m190 -12 c0 -8 -4 -14 -9 -14 -11 0 -22 26 -14 34 9 9 23 -3 23
-20z m-60 -10 c0 -16 -16 -19 -25 -4 -8 13 4 32 16 25 5 -4 9 -13 9 -21z m100
11 c0 -8 -2 -15 -4 -15 -2 0 -6 7 -10 15 -3 8 -1 15 4 15 6 0 10 -7 10 -15z
m-160 -21 c0 -8 -4 -14 -10 -14 -5 0 -10 9 -10 21 0 11 5 17 10 14 6 -3 10
-13 10 -21z m-168 -26 c-9 -9 -12 -7 -12 12 0 19 3 21 12 12 9 -9 9 -15 0 -24z
m62 0 c-9 -14 -23 2 -17 18 4 12 8 13 14 3 4 -7 5 -17 3 -21z m-114 12 c0 -5
-4 -10 -10 -10 -5 0 -10 5 -10 10 0 6 5 10 10 10 6 0 10 -4 10 -10z m364 -5
c3 -8 1 -15 -4 -15 -6 0 -10 7 -10 15 0 8 2 15 4 15 2 0 6 -7 10 -15z m-110
-26 c-3 -5 -10 -7 -15 -3 -5 3 -7 10 -3 15 3 5 10 7 15 3 5 -3 7 -10 3 -15z
m63 15 c-3 -3 -12 -4 -19 -1 -8 3 -5 6 6 6 11 1 17 -2 13 -5z m-287 -28 c0 -8
-4 -18 -10 -21 -5 -3 -10 3 -10 14 0 12 5 21 10 21 6 0 10 -6 10 -14z m58 -3
c-2 -10 -7 -18 -12 -18 -5 0 -10 8 -12 18 -1 9 4 17 13 17 8 0 13 -7 11 -17z
m62 -4 c0 -11 -5 -19 -12 -17 -17 6 -19 38 -2 38 8 0 14 -9 14 -21z m145 -7
c0 -18 -20 -15 -23 4 -3 10 1 15 10 12 7 -3 13 -10 13 -16z m55 -3 c0 -11 -4
-17 -10 -14 -5 3 -10 13 -10 21 0 8 5 14 10 14 6 0 10 -9 10 -21z m50 0 c0 -5
-4 -9 -10 -9 -5 0 -10 7 -10 16 0 8 5 12 10 9 6 -3 10 -10 10 -16z m-166 -4
c3 -8 1 -15 -4 -15 -6 0 -10 7 -10 15 0 8 2 15 4 15 2 0 6 -7 10 -15z m-180
-20 c3 -9 0 -15 -9 -15 -9 0 -12 6 -9 15 4 8 7 15 9 15 2 0 5 -7 9 -15z m-50
-16 c-6 -11 -24 -2 -24 11 0 5 7 7 15 4 8 -4 12 -10 9 -15z m113 5 c-3 -3 -12
-4 -19 -1 -8 3 -5 6 6 6 11 1 17 -2 13 -5z m60 0 c-3 -3 -12 -4 -19 -1 -8 3
-5 6 6 6 11 1 17 -2 13 -5z m100 -10 c-3 -3 -12 -4 -19 -1 -8 3 -5 6 6 6 11 1
17 -2 13 -5z m50 0 c-3 -3 -12 -4 -19 -1 -8 3 -5 6 6 6 11 1 17 -2 13 -5z
m-355 -46 c-9 -9 -12 -7 -12 12 0 19 3 21 12 12 9 -9 9 -15 0 -24z m61 26 c9
-9 -4 -35 -14 -28 -5 3 -9 12 -9 20 0 14 12 19 23 8z m57 -14 c0 -11 -4 -20
-10 -20 -5 0 -10 9 -10 20 0 11 5 20 10 20 6 0 10 -9 10 -20z m60 0 c0 -11 -4
-20 -10 -20 -5 0 -10 9 -10 20 0 11 5 20 10 20 6 0 10 -9 10 -20z m50 -5 c0
-8 -4 -15 -10 -15 -5 0 -10 7 -10 15 0 8 5 15 10 15 6 0 10 -7 10 -15z m50
-11 c0 -8 -4 -12 -10 -9 -5 3 -10 13 -10 21 0 8 5 12 10 9 6 -3 10 -13 10 -21z
m58 2 c3 -12 -1 -17 -10 -14 -7 3 -15 13 -16 22 -3 12 1 17 10 14 7 -3 15 -13
16 -22z m52 3 c0 -11 -4 -17 -10 -14 -5 3 -10 13 -10 21 0 8 5 14 10 14 6 0
10 -9 10 -21z m50 0 c0 -11 -4 -17 -10 -14 -5 3 -10 13 -10 21 0 8 5 14 10 14
6 0 10 -9 10 -21z m37 -11 c-3 -7 -5 -2 -5 12 0 14 2 19 5 13 2 -7 2 -19 0
-25z m-440 -24 c-3 -3 -12 -4 -19 -1 -8 3 -5 6 6 6 11 1 17 -2 13 -5z m60 0
c-3 -3 -12 -4 -19 -1 -8 3 -5 6 6 6 11 1 17 -2 13 -5z m113 -3 c0 -6 -5 -13
-12 -17 -6 -4 -8 -3 -4 4 3 5 0 13 -6 15 -8 3 -6 6 5 6 9 1 17 -3 17 -8z m45
-1 c3 -5 1 -10 -4 -10 -6 0 -11 5 -11 10 0 6 2 10 4 10 3 0 8 -4 11 -10z m62
-6 c-3 -3 -12 -4 -19 -1 -8 3 -5 6 6 6 11 1 17 -2 13 -5z m-247 -40 c0 -16
-16 -19 -25 -4 -8 13 4 32 16 25 5 -4 9 -13 9 -21z m56 3 c1 -9 -4 -17 -12
-17 -8 0 -14 9 -14 21 0 24 22 21 26 -4z m54 3 c0 -11 -4 -20 -10 -20 -5 0
-10 9 -10 20 0 11 5 20 10 20 6 0 10 -9 10 -20z m55 -17 c-7 -17 -8 -17 -15 2
-9 24 -2 41 12 27 6 -6 7 -19 3 -29z m-225 11 c0 -8 -5 -12 -10 -9 -6 4 -8 11
-5 16 9 14 15 11 15 -7z m280 -4 c0 -11 -4 -20 -10 -20 -5 0 -10 9 -10 20 0
11 5 20 10 20 6 0 10 -9 10 -20z m55 2 c0 -18 -20 -15 -23 4 -3 10 1 15 10 12
7 -3 13 -10 13 -16z m55 -2 c0 -11 -4 -20 -10 -20 -5 0 -10 9 -10 20 0 11 5
20 10 20 6 0 10 -9 10 -20z m50 0 c0 -11 -4 -20 -10 -20 -5 0 -10 9 -10 20 0
11 5 20 10 20 6 0 10 -9 10 -20z m50 -6 c0 -8 -4 -14 -10 -14 -5 0 -10 9 -10
21 0 11 5 17 10 14 6 -3 10 -13 10 -21z m-407 -40 c-4 -12 -8 -13 -14 -3 -9
15 -2 32 11 24 5 -3 6 -13 3 -21z m-56 1 c0 -8 -4 -12 -9 -9 -4 3 -8 9 -8 15
0 5 4 9 8 9 5 0 9 -7 9 -15z m121 4 c-2 -6 -8 -10 -13 -10 -5 0 -11 4 -13 10
-2 6 4 11 13 11 9 0 15 -5 13 -11z m52 1 c0 -5 -4 -10 -10 -10 -5 0 -10 5 -10
10 0 6 5 10 10 10 6 0 10 -4 10 -10z m60 -4 c0 -3 -4 -8 -10 -11 -5 -3 -10 -1
-10 4 0 6 5 11 10 11 6 0 10 -2 10 -4z m50 -6 c0 -5 -7 -7 -15 -4 -8 4 -15 8
-15 10 0 2 7 4 15 4 8 0 15 -4 15 -10z m57 4 c-3 -3 -12 -4 -19 -1 -8 3 -5 6
6 6 11 1 17 -2 13 -5z m-307 -34 c0 -11 -4 -20 -10 -20 -5 0 -10 9 -10 20 0
11 5 20 10 20 6 0 10 -9 10 -20z m-57 -4 c6 -14 0 -26 -13 -26 -3 0 -6 9 -7
20 -2 23 12 27 20 6z m115 -3 c-2 -10 -7 -18 -12 -18 -5 0 -10 8 -12 18 -1 9
4 17 13 17 8 0 13 -7 11 -17z m55 3 c6 -16 -2 -28 -14 -20 -12 7 -11 34 0 34
5 0 11 -6 14 -14z m57 -6 c0 -11 -4 -20 -10 -20 -5 0 -10 9 -10 20 0 11 5 20
10 20 6 0 10 -9 10 -20z m55 2 c0 -18 -20 -15 -23 4 -3 10 1 15 10 12 7 -3 13
-10 13 -16z m55 -2 c0 -11 -4 -20 -10 -20 -5 0 -10 9 -10 20 0 11 5 20 10 20
6 0 10 -9 10 -20z m60 0 c0 -11 -4 -20 -10 -20 -5 0 -10 9 -10 20 0 11 5 20
10 20 6 0 10 -9 10 -20z m50 -6 c0 -8 -4 -14 -10 -14 -5 0 -10 9 -10 21 0 11
5 17 10 14 6 -3 10 -13 10 -21z m50 0 c0 -8 -4 -14 -10 -14 -5 0 -10 9 -10 21
0 11 5 17 10 14 6 -3 10 -13 10 -21z m-465 -44 c-5 -8 -11 -8 -17 -2 -6 6 -7
16 -3 22 5 8 11 8 17 2 6 -6 7 -16 3 -22z m109 15 c3 -9 0 -15 -9 -15 -9 0
-12 6 -9 15 4 8 7 15 9 15 2 0 5 -7 9 -15z m-53 -8 c-1 -12 -15 -9 -19 4 -3 6
1 10 8 8 6 -3 11 -8 11 -12z m116 -3 c-3 -3 -12 -4 -19 -1 -8 3 -5 6 6 6 11 1
17 -2 13 -5z m110 0 c-3 -3 -12 -4 -19 -1 -8 3 -5 6 6 6 11 1 17 -2 13 -5z
m60 0 c-3 -3 -12 -4 -19 -1 -8 3 -5 6 6 6 11 1 17 -2 13 -5z m50 0 c-3 -3 -12
-4 -19 -1 -8 3 -5 6 6 6 11 1 17 -2 13 -5z m53 -3 c0 -6 -4 -12 -8 -15 -5 -3
-9 1 -9 9 0 8 4 15 9 15 4 0 8 -4 8 -9z m-470 -41 c0 -11 -4 -20 -10 -20 -5 0
-10 9 -10 20 0 11 5 20 10 20 6 0 10 -9 10 -20z m55 2 c0 -18 -20 -15 -23 4
-3 10 1 15 10 12 7 -3 13 -10 13 -16z m55 -2 c0 -11 -4 -20 -10 -20 -5 0 -10
9 -10 20 0 11 5 20 10 20 6 0 10 -9 10 -20z m60 -1 c0 -11 -5 -19 -12 -17 -17
6 -19 38 -2 38 8 0 14 -9 14 -21z m55 3 c0 -18 -20 -15 -23 4 -3 10 1 15 10
12 7 -3 13 -10 13 -16z m55 -2 c0 -11 -4 -20 -10 -20 -5 0 -10 9 -10 20 0 11
5 20 10 20 6 0 10 -9 10 -20z m60 0 c0 -11 -4 -20 -10 -20 -5 0 -10 9 -10 20
0 11 5 20 10 20 6 0 10 -9 10 -20z m50 0 c0 -11 -4 -20 -10 -20 -5 0 -10 9
-10 20 0 11 5 20 10 20 6 0 10 -9 10 -20z m55 -18 c-8 -9 -25 20 -18 31 3 5
10 2 15 -7 6 -10 7 -20 3 -24z m48 13 c4 -8 2 -17 -3 -20 -6 -4 -10 -4 -10 -1
0 2 -3 11 -6 20 -3 9 -2 16 4 16 5 0 12 -7 15 -15z m-466 -41 c-3 -3 -12 -4
-19 -1 -8 3 -5 6 6 6 11 1 17 -2 13 -5z m60 0 c-3 -3 -12 -4 -19 -1 -8 3 -5 6
6 6 11 1 17 -2 13 -5z m60 0 c-3 -3 -12 -4 -19 -1 -8 3 -5 6 6 6 11 1 17 -2
13 -5z m50 0 c-3 -3 -12 -4 -19 -1 -8 3 -5 6 6 6 11 1 17 -2 13 -5z m60 0 c-3
-3 -12 -4 -19 -1 -8 3 -5 6 6 6 11 1 17 -2 13 -5z m60 0 c-3 -3 -12 -4 -19 -1
-8 3 -5 6 6 6 11 1 17 -2 13 -5z m153 -10 c0 -8 -5 -12 -10 -9 -6 4 -8 11 -5
16 9 14 15 11 15 -7z m-470 -34 c0 -11 -4 -20 -10 -20 -5 0 -10 9 -10 20 0 11
5 20 10 20 6 0 10 -9 10 -20z m60 0 c0 -11 -4 -20 -10 -20 -5 0 -10 9 -10 20
0 11 5 20 10 20 6 0 10 -9 10 -20z m60 -6 c0 -16 -16 -19 -25 -4 -8 13 4 32
16 25 5 -4 9 -13 9 -21z m50 6 c0 -11 -4 -20 -10 -20 -5 0 -10 9 -10 20 0 11
5 20 10 20 6 0 10 -9 10 -20z m60 0 c0 -11 -4 -20 -10 -20 -5 0 -10 9 -10 20
0 11 5 20 10 20 6 0 10 -9 10 -20z m60 0 c0 -11 -4 -20 -10 -20 -5 0 -10 9
-10 20 0 11 5 20 10 20 6 0 10 -9 10 -20z m54 4 c9 -22 8 -24 -9 -24 -8 0 -15
9 -15 20 0 24 15 27 24 4z m56 -4 c0 -11 -4 -20 -10 -20 -5 0 -10 9 -10 20 0
11 5 20 10 20 6 0 10 -9 10 -20z m50 -5 c0 -8 -4 -15 -10 -15 -5 0 -10 7 -10
15 0 8 5 15 10 15 6 0 10 -7 10 -15z m50 -6 c0 -11 -4 -17 -10 -14 -5 3 -10
13 -10 21 0 8 5 14 10 14 6 0 10 -9 10 -21z m-463 -35 c-3 -3 -12 -4 -19 -1
-8 3 -5 6 6 6 11 1 17 -2 13 -5z m170 0 c-3 -3 -12 -4 -19 -1 -8 3 -5 6 6 6
11 1 17 -2 13 -5z m60 0 c-3 -3 -12 -4 -19 -1 -8 3 -5 6 6 6 11 1 17 -2 13 -5z
m50 0 c-3 -3 -12 -4 -19 -1 -8 3 -5 6 6 6 11 1 17 -2 13 -5z m60 0 c-3 -3 -12
-4 -19 -1 -8 3 -5 6 6 6 11 1 17 -2 13 -5z m53 -4 c0 -5 -2 -10 -4 -10 -3 0
-8 5 -11 10 -3 6 -1 10 4 10 6 0 11 -4 11 -10z m45 0 c3 -5 1 -10 -4 -10 -6 0
-11 5 -11 10 0 6 2 10 4 10 3 0 8 -4 11 -10z m-465 -46 c0 -8 -6 -14 -14 -14
-12 0 -14 10 -7 38 3 10 21 -11 21 -24z m56 1 c1 -8 -4 -15 -12 -15 -14 0 -19
21 -7 33 8 9 16 1 19 -18z m57 5 c3 -13 0 -20 -9 -20 -8 0 -14 9 -14 20 0 11
4 20 9 20 5 0 11 -9 14 -20z m57 0 c0 -11 -4 -20 -9 -20 -11 0 -22 26 -14 34
12 12 23 5 23 -14z m60 -6 c0 -16 -16 -19 -25 -4 -8 13 4 32 16 25 5 -4 9 -13
9 -21z m58 3 c2 -10 -3 -17 -12 -17 -10 0 -16 9 -16 21 0 24 23 21 28 -4z m52
3 c0 -11 -4 -20 -10 -20 -5 0 -10 9 -10 20 0 11 5 20 10 20 6 0 10 -9 10 -20z
m60 -6 c0 -16 -16 -19 -25 -4 -8 13 4 32 16 25 5 -4 9 -13 9 -21z m50 1 c0 -8
-4 -15 -10 -15 -5 0 -10 7 -10 15 0 8 5 15 10 15 6 0 10 -7 10 -15z m50 -5 c0
-11 -4 -20 -10 -20 -5 0 -10 9 -10 20 0 11 5 20 10 20 6 0 10 -9 10 -20z
m-473 -46 c-9 -9 -28 6 -21 18 4 6 10 6 17 -1 6 -6 8 -13 4 -17z m58 -4 c-5
-8 -11 -8 -17 -2 -6 6 -7 16 -3 22 5 8 11 8 17 2 6 -6 7 -16 3 -22z m338 4
c-4 -12 -8 -13 -14 -3 -9 15 -2 32 11 24 5 -3 6 -13 3 -21z m51 11 c3 -8 1
-15 -4 -15 -6 0 -10 7 -10 15 0 8 2 15 4 15 2 0 6 -7 10 -15z m-277 -10 c0
-11 -4 -12 -14 -4 -7 6 -13 13 -13 15 0 2 6 4 13 4 8 0 14 -7 14 -15z m120 9
c-3 -3 -12 -4 -19 -1 -8 3 -5 6 6 6 11 1 17 -2 13 -5z m-257 -50 c0 -8 -4 -14
-10 -14 -5 0 -10 9 -10 21 0 11 5 17 10 14 6 -3 10 -13 10 -21z m56 -10 c-5
-13 -10 -14 -18 -6 -6 6 -8 18 -4 28 5 13 10 14 18 6 6 -6 8 -18 4 -28z m56
-6 c-13 -13 -26 8 -17 30 6 16 7 16 17 -1 7 -13 7 -22 0 -29z m56 3 c-15 -5
-21 7 -13 26 7 17 8 17 15 -2 4 -11 3 -22 -2 -24z m65 19 c3 -13 0 -20 -9 -20
-8 0 -14 9 -14 20 0 11 4 20 9 20 5 0 11 -9 14 -20z m57 -6 c0 -8 -4 -14 -10
-14 -5 0 -10 9 -10 21 0 11 5 17 10 14 6 -3 10 -13 10 -21z m54 -13 c-9 -10
-26 18 -18 30 5 9 9 8 14 -7 4 -10 6 -21 4 -23z m-404 9 c0 -11 -4 -20 -9 -20
-5 0 -11 9 -14 20 -3 13 0 20 9 20 8 0 14 -9 14 -20z m453 5 c4 -8 2 -17 -3
-20 -6 -4 -10 -4 -10 -1 0 2 -3 11 -6 20 -3 9 -2 16 4 16 5 0 12 -7 15 -15z
m55 -8 c5 -24 -15 -21 -21 4 -3 13 -1 19 6 16 7 -2 13 -11 15 -20z m-474 -49
c-9 -14 -23 2 -17 18 4 12 8 13 14 3 4 -7 5 -17 3 -21z m56 11 c0 -5 -4 -9
-10 -9 -5 0 -10 7 -10 16 0 8 5 12 10 9 6 -3 10 -10 10 -16z m60 0 c0 -5 -7
-9 -15 -9 -9 0 -12 6 -9 15 6 15 24 11 24 -6z m55 -8 c-9 -16 -25 -3 -18 15 4
10 9 12 15 6 6 -6 7 -15 3 -21z m279 -3 c-9 -14 -23 2 -17 18 4 12 8 13 14 3
4 -7 5 -17 3 -21z m50 17 c3 -9 0 -15 -9 -15 -9 0 -12 6 -9 15 4 8 7 15 9 15
2 0 5 -7 9 -15z m-264 -4 c0 -17 -18 -21 -24 -6 -3 9 0 15 9 15 8 0 15 -4 15
-9z m57 3 c-3 -3 -12 -4 -19 -1 -8 3 -5 6 6 6 11 1 17 -2 13 -5z m53 -9 c0 -8
-2 -15 -4 -15 -2 0 -6 7 -10 15 -3 8 -1 15 4 15 6 0 10 -7 10 -15z m50 0 c0
-8 -2 -15 -4 -15 -2 0 -6 7 -10 15 -3 8 -1 15 4 15 6 0 10 -7 10 -15z m-130
-41 c0 -8 -4 -14 -10 -14 -5 0 -10 9 -10 21 0 11 5 17 10 14 6 -3 10 -13 10
-21z m60 0 c0 -8 -4 -14 -9 -14 -11 0 -22 26 -14 34 9 9 23 -3 23 -20z m50 0
c0 -8 -4 -14 -10 -14 -5 0 -10 9 -10 21 0 11 5 17 10 14 6 -3 10 -13 10 -21z
m-400 -5 c0 -24 -23 -21 -28 4 -2 10 3 17 12 17 10 0 16 -9 16 -21z m55 3 c0
-18 -20 -15 -23 4 -3 10 1 15 10 12 7 -3 13 -10 13 -16z m55 -2 c0 -11 -4 -20
-10 -20 -5 0 -10 9 -10 20 0 11 5 20 10 20 6 0 10 -9 10 -20z m60 0 c0 -11 -4
-20 -10 -20 -5 0 -10 9 -10 20 0 11 5 20 10 20 6 0 10 -9 10 -20z m60 6 c0 -8
-4 -18 -10 -21 -5 -3 -10 3 -10 14 0 12 5 21 10 21 6 0 10 -6 10 -14z m223 0
c6 -16 -2 -28 -14 -20 -12 7 -11 34 0 34 5 0 11 -6 14 -14z m52 -4 c0 -20 -18
-18 -21 1 -1 10 3 16 9 14 7 -2 12 -9 12 -15z m-361 -37 c3 -9 0 -15 -9 -15
-9 0 -12 6 -9 15 4 8 7 15 9 15 2 0 5 -7 9 -15z m59 -22 c-5 -11 -8 -12 -13
-2 -5 7 -6 19 -3 26 5 11 8 12 13 2 5 -7 6 -19 3 -26z m177 16 c0 -6 -4 -7
-10 -4 -5 3 -10 11 -10 16 0 6 5 7 10 4 6 -3 10 -11 10 -16z m104 -11 c-9 -14
-23 2 -17 18 4 12 8 13 14 3 4 -7 5 -17 3 -21z m50 17 c3 -9 0 -15 -9 -15 -9
0 -12 6 -9 15 4 8 7 15 9 15 2 0 5 -7 9 -15z m-270 -10 c-4 -8 -10 -12 -15 -9
-14 8 -10 24 6 24 9 0 12 -6 9 -15z m60 0 c-4 -8 -10 -12 -15 -9 -14 8 -10 24
6 24 9 0 12 -6 9 -15z m106 -1 c0 -8 -4 -12 -10 -9 -5 3 -10 10 -10 16 0 5 5
9 10 9 6 0 10 -7 10 -16z m-403 0 c-3 -3 -12 -4 -19 -1 -8 3 -5 6 6 6 11 1 17
-2 13 -5z m60 0 c-3 -3 -12 -4 -19 -1 -8 3 -5 6 6 6 11 1 17 -2 13 -5z m209
-49 c-8 -21 -25 -11 -21 13 2 9 4 19 4 22 1 2 6 -1 12 -7 7 -7 9 -19 5 -28z
m57 -8 c-9 -16 -26 12 -18 30 7 17 8 17 15 -2 4 -11 5 -24 3 -28z m57 17 c0
-8 -4 -14 -10 -14 -5 0 -10 9 -10 21 0 11 5 17 10 14 6 -3 10 -13 10 -21z
m-410 -4 c0 -11 -4 -20 -9 -20 -11 0 -22 26 -14 34 12 12 23 5 23 -14z m60 0
c0 -11 -4 -20 -10 -20 -5 0 -10 9 -10 20 0 11 5 20 10 20 6 0 10 -9 10 -20z
m60 -6 c0 -16 -16 -19 -25 -4 -8 13 4 32 16 25 5 -4 9 -13 9 -21z m60 5 c0
-24 -23 -21 -28 4 -2 10 3 17 12 17 10 0 16 -9 16 -21z m60 0 c0 -24 -23 -21
-28 4 -2 10 3 17 12 17 10 0 16 -9 16 -21z m220 0 c0 -11 -4 -17 -10 -14 -5 3
-10 13 -10 21 0 8 5 14 10 14 6 0 10 -9 10 -21z m55 3 c0 -18 -20 -15 -23 4
-3 10 1 15 10 12 7 -3 13 -10 13 -16z m-245 -54 c0 -4 -6 -5 -14 -2 -8 3 -12
12 -9 21 5 12 7 12 14 1 5 -7 9 -16 9 -20z m60 6 c0 -8 -4 -12 -10 -9 -5 3
-10 13 -10 21 0 8 5 12 10 9 6 -3 10 -13 10 -21z m55 -4 c-6 -9 -9 -9 -16 1
-10 17 0 34 13 21 6 -6 7 -16 3 -22z m55 10 c0 -5 -4 -10 -10 -10 -5 0 -10 5
-10 10 0 6 5 10 10 10 6 0 10 -4 10 -10z m-403 -6 c-3 -3 -12 -4 -19 -1 -8 3
-5 6 6 6 11 1 17 -2 13 -5z m116 -1 c-7 -2 -19 -2 -25 0 -7 3 -2 5 12 5 14 0
19 -2 13 -5z m60 0 c-7 -2 -19 -2 -25 0 -7 3 -2 5 12 5 14 0 19 -2 13 -5z
m287 3 c0 -11 -19 -15 -25 -6 -3 5 1 10 9 10 9 0 16 -2 16 -4z m47 -2 c-3 -3
-12 -4 -19 -1 -8 3 -5 6 6 6 11 1 17 -2 13 -5z m-184 -57 c-9 -16 -26 12 -18
30 7 17 8 17 15 -2 4 -11 5 -24 3 -28z m-358 5 c-2 -9 -4 -19 -4 -21 -1 -3 -6
0 -12 6 -13 13 -4 47 10 39 5 -4 8 -14 6 -24z m55 1 c0 -20 -3 -24 -11 -16 -7
7 -9 19 -6 27 10 24 17 19 17 -11z m63 7 c3 -13 0 -20 -9 -20 -8 0 -14 9 -14
20 0 11 4 20 9 20 5 0 11 -9 14 -20z m60 14 c8 -8 -3 -34 -14 -34 -5 0 -9 9
-9 20 0 19 11 26 23 14z m62 -14 c0 -7 -6 -15 -12 -17 -8 -3 -13 4 -13 17 0
13 5 20 13 18 6 -3 12 -11 12 -18z m60 2 c0 -18 -20 -15 -23 4 -3 10 1 15 10
12 7 -3 13 -10 13 -16z m115 4 c0 -8 -4 -18 -10 -21 -5 -3 -10 3 -10 14 0 12
5 21 10 21 6 0 10 -6 10 -14z m50 -7 c0 -11 -4 -17 -10 -14 -5 3 -10 13 -10
21 0 8 5 14 10 14 6 0 10 -9 10 -21z m53 15 c9 -9 -4 -35 -14 -28 -5 3 -9 12
-9 20 0 14 12 19 23 8z m-311 -76 c-13 -13 -24 5 -16 27 7 16 8 16 17 0 6 -11
6 -20 -1 -27z m62 27 c3 -9 0 -15 -9 -15 -9 0 -12 6 -9 15 4 8 7 15 9 15 2 0
5 -7 9 -15z m66 -6 c0 -5 -7 -9 -15 -9 -9 0 -12 6 -9 15 6 15 24 11 24 -6z
m53 -12 c-3 -5 -10 -4 -15 1 -6 6 -7 16 -3 22 6 9 9 9 16 -1 4 -7 5 -17 2 -22z
m160 -4 c-5 -11 -8 -12 -13 -2 -5 7 -6 19 -3 26 5 11 8 12 13 2 5 -7 6 -19 3
-26z m-520 -6 c-3 -5 -10 -4 -15 1 -6 6 -7 16 -3 22 6 9 9 9 16 -1 4 -7 5 -17
2 -22z m62 4 c-9 -16 -25 -3 -18 15 4 10 9 12 15 6 6 -6 7 -15 3 -21z m60 -1
c-5 -8 -11 -8 -17 -2 -6 6 -7 16 -3 22 5 8 11 8 17 2 6 -6 7 -16 3 -22z m345
9 c0 -6 -4 -7 -10 -4 -5 3 -10 11 -10 16 0 6 5 7 10 4 6 -3 10 -11 10 -16z
m-314 -55 c-5 -13 -10 -14 -18 -6 -6 6 -8 18 -4 28 5 13 10 14 18 6 6 -6 8
-18 4 -28z m64 16 c0 -11 -4 -20 -9 -20 -11 0 -22 26 -14 34 12 12 23 5 23
-14z m60 0 c0 -11 -4 -20 -10 -20 -5 0 -10 9 -10 20 0 11 5 20 10 20 6 0 10
-9 10 -20z m60 0 c0 -11 -4 -20 -10 -20 -5 0 -10 9 -10 20 0 11 5 20 10 20 6
0 10 -9 10 -20z m60 6 c0 -24 -17 -28 -23 -6 -3 13 0 20 9 20 8 0 14 -6 14
-14z m50 -6 c0 -11 -4 -20 -10 -20 -5 0 -10 9 -10 20 0 11 5 20 10 20 6 0 10
-9 10 -20z m55 2 c0 -18 -20 -15 -23 4 -3 10 1 15 10 12 7 -3 13 -10 13 -16z
m-527 -9 c-4 -22 -22 -20 -26 1 -2 10 3 16 13 16 10 0 15 -7 13 -17z m62 3 c0
-8 -4 -18 -10 -21 -5 -3 -10 -4 -10 -1 0 2 -3 11 -6 20 -4 11 -1 16 10 16 9 0
16 -6 16 -14z m58 -3 c-4 -22 -22 -20 -26 1 -2 10 3 16 13 16 10 0 15 -7 13
-17z m326 -45 c-9 -14 -23 2 -17 18 4 12 8 13 14 3 4 -7 5 -17 3 -21z m56 11
c0 -5 -4 -9 -8 -9 -5 0 -9 7 -9 15 0 8 4 12 9 9 4 -3 8 -9 8 -15z m-350 -10
c0 -5 -7 -9 -15 -9 -9 0 -12 6 -9 15 6 15 24 11 24 -6z m65 3 c0 -18 -20 -15
-23 4 -3 10 1 15 10 12 7 -3 13 -10 13 -16z m59 -7 c-4 -8 -7 -15 -9 -15 -2 0
-5 7 -9 15 -3 9 0 15 9 15 9 0 12 -6 9 -15z m60 0 c-4 -8 -7 -15 -9 -15 -2 0
-5 7 -9 15 -3 9 0 15 9 15 9 0 12 -6 9 -15z m60 0 c-4 -8 -7 -15 -9 -15 -2 0
-5 7 -9 15 -3 9 0 15 9 15 9 0 12 -6 9 -15z m163 9 c-3 -3 -12 -4 -19 -1 -8 3
-5 6 6 6 11 1 17 -2 13 -5z m-530 -10 c-3 -3 -12 -4 -19 -1 -8 3 -5 6 6 6 11
1 17 -2 13 -5z m60 0 c-3 -3 -12 -4 -19 -1 -8 3 -5 6 6 6 11 1 17 -2 13 -5z
m159 -50 c-5 -13 -10 -14 -18 -6 -6 6 -8 18 -4 28 5 13 10 14 18 6 6 -6 8 -18
4 -28z m64 10 c0 -16 -16 -19 -25 -4 -8 13 4 32 16 25 5 -4 9 -13 9 -21z m60
6 c0 -11 -4 -20 -10 -20 -5 0 -10 9 -10 20 0 11 5 20 10 20 6 0 10 -9 10 -20z
m55 2 c0 -18 -20 -15 -23 4 -3 10 1 15 10 12 7 -3 13 -10 13 -16z m55 4 c0
-24 -17 -28 -23 -6 -3 13 0 20 9 20 8 0 14 -6 14 -14z m50 -6 c0 -11 -4 -20
-10 -20 -5 0 -10 9 -10 20 0 11 5 20 10 20 6 0 10 -9 10 -20z m-530 -10 c0
-11 -4 -20 -10 -20 -5 0 -10 9 -10 20 0 11 5 20 10 20 6 0 10 -9 10 -20z m60
0 c0 -11 -4 -20 -10 -20 -5 0 -10 9 -10 20 0 11 5 20 10 20 6 0 10 -9 10 -20z
m63 14 c8 -8 -3 -34 -14 -34 -5 0 -9 9 -9 20 0 19 11 26 23 14z m62 -14 c0 -7
-6 -15 -12 -17 -8 -3 -13 4 -13 17 0 13 5 20 13 18 6 -3 12 -11 12 -18z m269
-25 c3 -9 0 -15 -9 -15 -9 0 -12 6 -9 15 4 8 7 15 9 15 2 0 5 -7 9 -15z m104
-12 c1 -24 0 -25 -9 -10 -5 9 -7 22 -4 27 9 15 10 13 13 -17z m-345 -21 c-5
-12 -7 -12 -15 2 -11 20 1 44 12 25 5 -6 6 -19 3 -27z m67 12 c0 -8 -4 -12
-10 -9 -5 3 -10 13 -10 21 0 8 5 12 10 9 6 -3 10 -13 10 -21z m67 10 c-3 -3
-12 -4 -19 -1 -8 3 -5 6 6 6 11 1 17 -2 13 -5z m-310 -10 c-3 -3 -12 -4 -19
-1 -8 3 -5 6 6 6 11 1 17 -2 13 -5z m60 0 c-3 -3 -12 -4 -19 -1 -8 3 -5 6 6 6
11 1 17 -2 13 -5z m60 0 c-3 -3 -12 -4 -19 -1 -8 3 -5 6 6 6 11 1 17 -2 13 -5z
m159 -50 c-5 -13 -10 -14 -18 -6 -6 6 -8 18 -4 28 5 13 10 14 18 6 6 -6 8 -18
4 -28z m64 10 c0 -8 -7 -14 -15 -14 -15 0 -21 21 -9 33 10 9 24 -2 24 -19z
m50 6 c0 -11 -4 -20 -10 -20 -5 0 -10 9 -10 20 0 11 5 20 10 20 6 0 10 -9 10
-20z m55 2 c0 -18 -20 -15 -23 4 -3 10 1 15 10 12 7 -3 13 -10 13 -16z m55 -2
c0 -11 -4 -20 -10 -20 -5 0 -10 9 -10 20 0 11 5 20 10 20 6 0 10 -9 10 -20z
m-537 -33 c-9 -16 -26 12 -18 30 7 17 8 17 15 -2 4 -11 5 -24 3 -28z m67 17
c0 -8 -7 -14 -15 -14 -15 0 -21 21 -9 33 10 9 24 -2 24 -19z m56 1 c1 -8 -4
-15 -12 -15 -14 0 -19 21 -7 33 8 9 16 1 19 -18z m64 5 c0 -11 -4 -20 -9 -20
-14 0 -23 18 -16 30 10 17 25 11 25 -10z m60 0 c0 -11 -4 -20 -10 -20 -5 0
-10 9 -10 20 0 11 5 20 10 20 6 0 10 -9 10 -20z m34 -35 c3 -9 0 -15 -9 -15
-9 0 -12 6 -9 15 4 8 7 15 9 15 2 0 5 -7 9 -15z m-249 -25 c-5 -8 -11 -8 -17
-2 -6 6 -7 16 -3 22 5 8 11 8 17 2 6 -6 7 -16 3 -22z m60 20 c3 -5 -1 -10 -10
-10 -9 0 -13 5 -10 10 3 6 8 10 10 10 2 0 7 -4 10 -10z m255 1 c0 -6 -4 -13
-10 -16 -5 -3 -10 1 -10 9 0 9 5 16 10 16 6 0 10 -4 10 -9z m57 3 c-3 -3 -12
-4 -19 -1 -8 3 -5 6 6 6 11 1 17 -2 13 -5z m60 0 c-3 -3 -12 -4 -19 -1 -8 3
-5 6 6 6 11 1 17 -2 13 -5z m50 0 c-3 -3 -12 -4 -19 -1 -8 3 -5 6 6 6 11 1 17
-2 13 -5z m60 0 c-3 -3 -12 -4 -19 -1 -8 3 -5 6 6 6 11 1 17 -2 13 -5z m-420
-10 c-3 -3 -12 -4 -19 -1 -8 3 -5 6 6 6 11 1 17 -2 13 -5z m70 0 c-3 -3 -12
-4 -19 -1 -8 3 -5 6 6 6 11 1 17 -2 13 -5z m153 -34 c0 -11 -4 -20 -10 -20 -5
0 -10 9 -10 20 0 11 5 20 10 20 6 0 10 -9 10 -20z m60 -6 c0 -8 -4 -14 -9 -14
-11 0 -22 26 -14 34 9 9 23 -3 23 -20z m53 20 c9 -9 -4 -35 -14 -28 -5 3 -9
12 -9 20 0 14 12 19 23 8z m57 -20 c0 -8 -4 -14 -10 -14 -5 0 -10 9 -10 21 0
11 5 17 10 14 6 -3 10 -13 10 -21z m-544 -20 c-5 -13 -10 -14 -18 -6 -6 6 -8
18 -4 28 5 13 10 14 18 6 6 -6 8 -18 4 -28z m124 16 c0 -11 -4 -20 -10 -20 -5
0 -10 9 -10 20 0 11 5 20 10 20 6 0 10 -9 10 -20z m63 0 c3 -13 0 -20 -9 -20
-8 0 -14 9 -14 20 0 11 4 20 9 20 5 0 11 -9 14 -20z m67 -1 c0 -24 -23 -21
-28 4 -2 10 3 17 12 17 10 0 16 -9 16 -21z m60 1 c0 -19 -11 -26 -23 -14 -8 8
3 34 14 34 5 0 9 -9 9 -20z m-252 -7 c-4 -22 -22 -20 -26 1 -2 10 3 16 13 16
10 0 15 -7 13 -17z m156 -28 c3 -9 0 -15 -9 -15 -9 0 -12 6 -9 15 4 8 7 15 9
15 2 0 5 -7 9 -15z m129 -22 c-5 -11 -8 -12 -13 -2 -5 7 -6 19 -3 26 5 11 8
12 13 2 5 -7 6 -19 3 -26z m-324 -2 c-15 -5 -22 6 -14 19 6 9 10 9 16 -1 5 -8
4 -15 -2 -18z m136 -1 c-5 -8 -11 -8 -17 -2 -6 6 -7 16 -3 22 5 8 11 8 17 2 6
-6 7 -16 3 -22z m249 15 c-4 -8 -7 -15 -9 -15 -2 0 -5 7 -9 15 -3 9 0 15 9 15
9 0 12 -6 9 -15z m53 9 c-3 -3 -12 -4 -19 -1 -8 3 -5 6 6 6 11 1 17 -2 13 -5z
m60 0 c-3 -3 -12 -4 -19 -1 -8 3 -5 6 6 6 11 1 17 -2 13 -5z m-427 -14 c0 -5
-4 -10 -10 -10 -5 0 -10 5 -10 10 0 6 5 10 10 10 6 0 10 -4 10 -10z m193 3
c-7 -2 -19 -2 -25 0 -7 3 -2 5 12 5 14 0 19 -2 13 -5z m157 -39 c0 -8 -7 -14
-15 -14 -15 0 -21 21 -9 33 10 9 24 -2 24 -19z m50 6 c0 -11 -4 -20 -10 -20
-5 0 -10 9 -10 20 0 11 5 20 10 20 6 0 10 -9 10 -20z m57 5 c8 -22 -6 -33 -17
-15 -13 20 -12 30 0 30 6 0 13 -7 17 -15z m-362 -32 c-7 -17 -8 -17 -15 2 -9
24 -2 41 12 27 6 -6 7 -19 3 -29z m65 17 c0 -11 -4 -20 -10 -20 -5 0 -10 9
-10 20 0 11 5 20 10 20 6 0 10 -9 10 -20z m65 2 c0 -18 -20 -15 -23 4 -3 10 1
15 10 12 7 -3 13 -10 13 -16z m65 -2 c0 -11 -4 -20 -10 -20 -5 0 -10 2 -10 4
0 2 -3 11 -6 20 -4 11 -1 16 10 16 9 0 16 -8 16 -20z m-382 -7 c-5 -25 -28
-28 -28 -4 0 12 6 21 16 21 9 0 14 -7 12 -17z m62 -3 c0 -11 -4 -20 -10 -20
-5 0 -10 9 -10 20 0 11 5 20 10 20 6 0 10 -9 10 -20z m65 0 c0 -7 -6 -15 -12
-17 -8 -3 -13 4 -13 17 0 13 5 20 13 18 6 -3 12 -11 12 -18z m159 -25 c3 -9 0
-15 -9 -15 -9 0 -12 6 -9 15 4 8 7 15 9 15 2 0 5 -7 9 -15z m71 -7 c6 -4 0 -8
-12 -8 -16 0 -21 4 -16 15 3 9 8 12 12 8 3 -4 11 -11 16 -15z m55 1 c0 -5 -4
-9 -10 -9 -5 0 -10 7 -10 16 0 8 5 12 10 9 6 -3 10 -10 10 -16z m55 -9 c-6 -9
-9 -9 -16 1 -10 17 0 34 13 21 6 -6 7 -16 3 -22z m-371 5 c3 -9 0 -15 -9 -15
-9 0 -12 6 -9 15 4 8 7 15 9 15 2 0 5 -7 9 -15z m60 0 c3 -9 0 -15 -9 -15 -9
0 -12 6 -9 15 4 8 7 15 9 15 2 0 5 -7 9 -15z m373 9 c-3 -3 -12 -4 -19 -1 -8
3 -5 6 6 6 11 1 17 -2 13 -5z m57 -9 c-4 -8 -7 -15 -9 -15 -2 0 -5 7 -9 15 -3
9 0 15 9 15 9 0 12 -6 9 -15z m-360 -10 c-4 -8 -10 -12 -15 -9 -14 8 -10 24 6
24 9 0 12 -6 9 -15z m-197 -1 c-3 -3 -12 -4 -19 -1 -8 3 -5 6 6 6 11 1 17 -2
13 -5z m473 -30 c0 -8 -4 -14 -10 -14 -5 0 -10 9 -10 21 0 11 5 17 10 14 6 -3
10 -13 10 -21z m60 0 c0 -8 -4 -14 -9 -14 -11 0 -22 26 -14 34 9 9 23 -3 23
-20z m-304 -20 c-5 -13 -10 -14 -18 -6 -6 6 -8 18 -4 28 5 13 10 14 18 6 6 -6
8 -18 4 -28z m67 30 c8 -8 -3 -34 -14 -34 -5 0 -9 9 -9 20 0 19 11 26 23 14z
m62 -12 c0 -18 -20 -15 -23 4 -3 10 1 15 10 12 7 -3 13 -10 13 -16z m55 -3 c0
-11 -4 -17 -10 -14 -5 3 -10 13 -10 21 0 8 5 14 10 14 6 0 10 -9 10 -21z
m-440 -9 c0 -11 -7 -20 -15 -20 -8 0 -15 9 -15 20 0 11 7 20 15 20 8 0 15 -9
15 -20z m63 14 c8 -8 -3 -34 -14 -34 -5 0 -9 9 -9 20 0 19 11 26 23 14z m67
-15 c0 -24 -23 -21 -28 4 -2 10 3 17 12 17 10 0 16 -9 16 -21z m65 1 c0 -7 -6
-15 -12 -17 -8 -3 -13 4 -13 17 0 13 5 20 13 18 6 -3 12 -11 12 -18z m159 -25
c3 -9 0 -15 -9 -15 -9 0 -12 6 -9 15 4 8 7 15 9 15 2 0 5 -7 9 -15z m61 -14
c-9 -16 -25 -3 -18 15 4 10 9 12 15 6 6 -6 7 -15 3 -21z m60 0 c-9 -16 -25 -3
-18 15 4 10 9 12 15 6 6 -6 7 -15 3 -21z m-245 -2 c0 -5 -8 -9 -17 -8 -11 0
-13 3 -5 6 6 2 9 10 6 15 -4 7 -2 8 4 4 7 -4 12 -11 12 -17z m63 -5 c-4 -10
-9 -12 -15 -6 -12 12 -1 35 12 27 5 -3 6 -13 3 -21z m244 20 c-3 -3 -12 -4
-19 -1 -8 3 -5 6 6 6 11 1 17 -2 13 -5z m60 0 c-3 -3 -12 -4 -19 -1 -8 3 -5 6
6 6 11 1 17 -2 13 -5z m-564 -21 c-7 -2 -19 -2 -25 0 -7 3 -2 5 12 5 14 0 19
-2 13 -5z m64 1 c-3 -3 -12 -4 -19 -1 -8 3 -5 6 6 6 11 1 17 -2 13 -5z m66
-10 c-3 -9 -9 -12 -12 -7 -3 4 -10 11 -15 16 -5 4 0 7 12 7 15 0 20 -4 15 -16z
m407 -20 c0 -8 -4 -14 -9 -14 -11 0 -22 26 -14 34 9 9 23 -3 23 -20z m50 6 c0
-11 -4 -20 -10 -20 -5 0 -10 9 -10 20 0 11 5 20 10 20 6 0 10 -9 10 -20z
m-290 -16 c0 -16 -16 -19 -25 -4 -8 13 4 32 16 25 5 -4 9 -13 9 -21z m60 6 c0
-11 -4 -20 -10 -20 -5 0 -10 9 -10 20 0 11 5 20 10 20 6 0 10 -9 10 -20z m60
0 c0 -11 -4 -20 -10 -20 -5 0 -10 9 -10 20 0 11 5 20 10 20 6 0 10 -9 10 -20z
m60 6 c0 -8 -4 -18 -10 -21 -5 -3 -10 3 -10 14 0 12 5 21 10 21 6 0 10 -6 10
-14z m-510 -16 c0 -11 -7 -20 -15 -20 -8 0 -15 9 -15 20 0 11 7 20 15 20 8 0
15 -9 15 -20z m66 -3 c1 -9 -4 -17 -12 -17 -8 0 -14 9 -14 21 0 24 22 21 26
-4z m64 3 c0 -11 -4 -20 -9 -20 -11 0 -22 26 -14 34 12 12 23 5 23 -14z m70
-1 c0 -24 -23 -21 -28 4 -2 10 3 17 12 17 10 0 16 -9 16 -21z m65 1 c0 -7 -6
-15 -12 -17 -8 -3 -13 4 -13 17 0 13 5 20 13 18 6 -3 12 -11 12 -18z m159 -25
c3 -9 0 -15 -9 -15 -9 0 -12 6 -9 15 4 8 7 15 9 15 2 0 5 -7 9 -15z m60 -17
c-9 -14 -23 2 -17 18 4 12 8 13 14 3 4 -7 5 -17 3 -21z m-391 -15 c-5 -11 -8
-12 -13 -2 -5 7 -6 19 -3 26 5 11 8 12 13 2 5 -7 6 -19 3 -26z m140 1 c-4 -10
-8 -10 -17 -1 -9 8 -10 14 -2 23 13 14 27 -2 19 -22z m67 11 c0 -8 -6 -12 -14
-9 -8 3 -12 12 -9 20 6 17 23 9 23 -11z m242 18 c-6 -2 -9 -10 -6 -15 4 -7 2
-8 -4 -4 -18 11 -14 26 6 25 10 0 12 -3 4 -6z m65 1 c-3 -3 -12 -4 -19 -1 -8
3 -5 6 6 6 11 1 17 -2 13 -5z m-240 -10 c-3 -3 -12 -4 -19 -1 -8 3 -5 6 6 6
11 1 17 -2 13 -5z m-334 -11 c-7 -2 -19 -2 -25 0 -7 3 -2 5 12 5 14 0 19 -2
13 -5z m131 -8 c-4 -8 -7 -15 -9 -15 -2 0 -5 7 -9 15 -3 9 0 15 9 15 9 0 12
-6 9 -15z m416 -21 c0 -8 -4 -14 -9 -14 -11 0 -22 26 -14 34 9 9 23 -3 23 -20z
m-240 -10 c0 -8 -7 -14 -15 -14 -15 0 -21 21 -9 33 10 9 24 -2 24 -19z m60 6
c0 -11 -4 -20 -10 -20 -5 0 -10 9 -10 20 0 11 5 20 10 20 6 0 10 -9 10 -20z
m60 0 c0 -11 -4 -20 -10 -20 -5 0 -10 9 -10 20 0 11 5 20 10 20 6 0 10 -9 10
-20z m60 6 c0 -24 -17 -28 -23 -6 -3 13 0 20 9 20 8 0 14 -6 14 -14z m-522
-19 c2 -10 -3 -17 -12 -17 -10 0 -16 9 -16 21 0 24 23 21 28 -4z m70 0 c2 -10
-3 -17 -12 -17 -10 0 -16 9 -16 21 0 24 23 21 28 -4z m69 8 c7 -20 -2 -29 -21
-22 -9 4 -13 13 -10 22 8 19 23 19 31 0z m66 9 c8 -8 -3 -34 -14 -34 -5 0 -9
9 -9 20 0 19 11 26 23 14z m67 -15 c0 -11 -5 -19 -12 -17 -17 6 -19 38 -2 38
8 0 14 -9 14 -21z m224 -41 c-9 -14 -23 2 -17 18 4 12 8 13 14 3 4 -7 5 -17 3
-21z m-471 -15 c-5 -11 -8 -12 -13 -2 -5 7 -6 19 -3 26 5 11 8 12 13 2 5 -7 6
-19 3 -26z m71 9 c-8 -2 -11 -9 -8 -15 5 -9 4 -9 -5 -1 -6 6 -9 18 -5 27 4 13
9 14 19 4 11 -10 11 -13 -1 -15z m81 6 c6 -4 0 -8 -12 -8 -16 0 -21 4 -16 15
3 9 8 12 12 8 3 -4 11 -11 16 -15z m130 -8 c-5 -8 -11 -8 -17 -2 -6 6 -7 16
-3 22 5 8 11 8 17 2 6 -6 7 -16 3 -22z m245 14 c0 -8 -4 -12 -10 -9 -5 3 -10
10 -10 16 0 5 5 9 10 9 6 0 10 -7 10 -16z m67 10 c-3 -3 -12 -4 -19 -1 -8 3
-5 6 6 6 11 1 17 -2 13 -5z m-244 -20 c-3 -9 -9 -12 -12 -7 -3 4 -10 11 -15
16 -5 4 0 7 12 7 15 0 20 -4 15 -16z m64 10 c-3 -3 -12 -4 -19 -1 -8 3 -5 6 6
6 11 1 17 -2 13 -5z m-193 -11 c-5 -5 -12 -12 -15 -16 -3 -5 -9 -2 -12 7 -5
12 0 16 15 16 12 0 17 -3 12 -7z m346 -29 c0 -8 -4 -14 -9 -14 -11 0 -22 26
-14 34 9 9 23 -3 23 -20z m58 2 c3 -12 -1 -17 -10 -14 -7 3 -15 13 -16 22 -3
12 1 17 10 14 7 -3 15 -13 16 -22z m-302 -22 c-5 -13 -10 -14 -18 -6 -6 6 -8
18 -4 28 5 13 10 14 18 6 6 -6 8 -18 4 -28z m64 10 c0 -16 -16 -19 -25 -4 -8
13 4 32 16 25 5 -4 9 -13 9 -21z m60 6 c0 -11 -4 -20 -9 -20 -5 0 -11 9 -14
20 -3 13 0 20 9 20 8 0 14 -9 14 -20z m60 0 c0 -11 -4 -20 -9 -20 -5 0 -11 9
-14 20 -3 13 0 20 9 20 8 0 14 -9 14 -20z m-536 2 c2 -4 0 -14 -5 -22 -8 -13
-10 -13 -18 0 -10 15 -6 30 9 30 5 0 11 -4 14 -8z m74 -15 c2 -10 -3 -17 -12
-17 -10 0 -16 9 -16 21 0 24 23 21 28 -4z m70 0 c2 -10 -3 -17 -12 -17 -10 0
-16 9 -16 21 0 24 23 21 28 -4z m72 3 c0 -11 -7 -20 -15 -20 -8 0 -15 9 -15
20 0 11 7 20 15 20 8 0 15 -9 15 -20z m68 3 c-4 -22 -22 -20 -26 1 -2 10 3 16
13 16 10 0 15 -7 13 -17z m166 -28 c3 -9 0 -15 -9 -15 -9 0 -12 6 -9 15 4 8 7
15 9 15 2 0 5 -7 9 -15z m59 -22 c-5 -11 -8 -12 -13 -2 -5 7 -6 19 -3 26 5 11
8 12 13 2 5 -7 6 -19 3 -26z m60 11 c-4 -10 -9 -12 -15 -6 -12 12 -1 35 12 27
5 -3 6 -13 3 -21z m-540 -21 c-5 -11 -8 -12 -13 -2 -5 7 -6 19 -3 26 5 11 8
12 13 2 5 -7 6 -19 3 -26z m73 1 c-13 -14 -27 2 -19 22 4 10 8 10 17 1 9 -8
10 -14 2 -23z m69 26 c-3 -5 0 -10 7 -11 10 0 10 -2 0 -6 -6 -2 -9 -10 -5 -16
4 -7 0 -7 -9 1 -17 14 -14 42 4 42 5 0 6 -4 3 -10z m78 -3 c8 -22 -6 -37 -21
-21 -8 9 -9 14 -2 14 6 0 8 5 5 10 -3 6 -2 10 3 10 6 0 12 -6 15 -13z m71 -12
c-3 -7 -12 -11 -20 -8 -11 4 -12 9 -3 19 14 17 30 9 23 -11z m61 15 c3 -5 -1
-10 -10 -10 -9 0 -13 5 -10 10 3 6 8 10 10 10 2 0 7 -4 10 -10z m252 4 c-3 -3
-12 -4 -19 -1 -8 3 -5 6 6 6 11 1 17 -2 13 -5z m-27 -50 c0 -8 -4 -14 -10 -14
-5 0 -10 9 -10 21 0 11 5 17 10 14 6 -3 10 -13 10 -21z m60 6 c0 -11 -4 -20
-10 -20 -5 0 -10 9 -10 20 0 11 5 20 10 20 6 0 10 -9 10 -20z m-310 -16 c0 -8
-6 -14 -14 -14 -12 0 -14 10 -7 38 3 10 21 -11 21 -24z m68 3 c2 -10 -3 -17
-12 -17 -10 0 -16 9 -16 21 0 24 23 21 28 -4z m62 2 c0 -24 -23 -21 -28 4 -2
10 3 17 12 17 10 0 16 -9 16 -21z m60 6 c0 -8 -4 -15 -9 -15 -5 0 -11 7 -15
15 -3 9 0 15 9 15 8 0 15 -7 15 -15z m-546 -3 c2 -4 1 -14 -4 -22 -7 -11 -12
-12 -21 -3 -6 6 -8 16 -5 22 8 13 23 14 30 3z m72 -3 c8 -14 -11 -33 -25 -25
-11 7 -4 36 9 36 5 0 12 -5 16 -11z m74 -9 c0 -11 -7 -20 -15 -20 -8 0 -15 9
-15 20 0 11 7 20 15 20 8 0 15 -9 15 -20z m70 -1 c0 -24 -23 -21 -28 4 -2 10
3 17 12 17 10 0 16 -9 16 -21z m70 0 c0 -11 -5 -19 -12 -17 -17 6 -19 38 -2
38 8 0 14 -9 14 -21z m233 -42 c-3 -5 -10 -4 -15 1 -6 6 -7 16 -3 22 6 9 9 9
16 -1 4 -7 5 -17 2 -22z m62 23 c3 -5 -1 -10 -10 -10 -9 0 -13 5 -10 10 3 6 8
10 10 10 2 0 7 -4 10 -10z m-551 -15 c4 -10 -1 -15 -15 -15 -17 0 -18 2 -7 15
16 18 15 18 22 0z m149 -21 c-4 -10 -8 -10 -18 -1 -9 9 -10 16 -2 25 12 16 28
-3 20 -24z m71 2 c-6 -16 -8 -17 -16 -2 -11 19 0 42 13 29 6 -6 7 -18 3 -27z
m71 5 c-9 -16 -25 -3 -18 15 4 10 9 12 15 6 6 -6 7 -15 3 -21z m70 19 c3 -5
-1 -10 -10 -10 -9 0 -13 5 -10 10 3 6 8 10 10 10 2 0 7 -4 10 -10z m252 4 c-3
-3 -12 -4 -19 -1 -8 3 -5 6 6 6 11 1 17 -2 13 -5z m-183 -19 c-4 -8 -7 -15 -9
-15 -2 0 -5 7 -9 15 -3 9 0 15 9 15 9 0 12 -6 9 -15z m-351 -2 c-7 -2 -19 -2
-25 0 -7 3 -2 5 12 5 14 0 19 -2 13 -5z m507 -23 c0 -11 -4 -20 -10 -20 -5 0
-10 9 -10 20 0 11 5 20 10 20 6 0 10 -9 10 -20z m60 0 c0 -11 -4 -20 -10 -20
-5 0 -10 9 -10 20 0 11 5 20 10 20 6 0 10 -9 10 -20z m-312 -13 c2 -10 -3 -17
-12 -17 -10 0 -16 9 -16 21 0 24 23 21 28 -4z m68 12 c8 -14 -11 -33 -25 -25
-11 7 -4 36 9 36 5 0 12 -5 16 -11z m64 -10 c0 -24 -23 -21 -28 4 -2 10 3 17
12 17 10 0 16 -9 16 -21z m60 6 c0 -8 -4 -15 -9 -15 -5 0 -11 7 -15 15 -3 9 0
15 9 15 8 0 15 -7 15 -15z m-560 -16 c0 -24 -23 -21 -28 4 -2 10 3 17 12 17
10 0 16 -9 16 -21z m76 10 c8 -14 -11 -33 -25 -25 -11 7 -4 36 9 36 5 0 12 -5
16 -11z m72 -6 c-4 -22 -22 -20 -26 1 -2 10 3 16 13 16 10 0 15 -7 13 -17z
m78 6 c3 -6 1 -16 -5 -22 -9 -9 -14 -8 -21 3 -5 8 -10 18 -10 23 0 11 28 8 36
-4z m72 -6 c-4 -22 -22 -20 -26 1 -2 10 3 16 13 16 10 0 15 -7 13 -17z m166
-28 c3 -9 0 -15 -9 -15 -9 0 -12 6 -9 15 4 8 7 15 9 15 2 0 5 -7 9 -15z m69
-18 c-3 -5 -10 -4 -15 1 -6 6 -7 16 -3 22 6 9 9 9 16 -1 4 -7 5 -17 2 -22z
m62 23 c3 -5 -1 -10 -10 -10 -9 0 -13 5 -10 10 3 6 8 10 10 10 2 0 7 -4 10
-10z m-561 -32 c-3 -4 -11 -5 -19 -2 -11 5 -12 9 -2 19 12 13 31 -1 21 -17z
m79 18 c6 -16 -19 -30 -28 -16 -7 11 2 30 15 30 4 0 10 -6 13 -14z m72 -16
c-5 -8 -11 -8 -17 -2 -6 6 -7 16 -3 22 5 8 11 8 17 2 6 -6 7 -16 3 -22z m70 0
c-5 -8 -11 -8 -17 -2 -6 6 -7 16 -3 22 5 8 11 8 17 2 6 -6 7 -16 3 -22z m72 5
c-7 -7 -16 -10 -21 -5 -12 12 2 30 19 24 11 -5 12 -9 2 -19z m330 19 c-3 -3
-12 -4 -19 -1 -8 3 -5 6 6 6 11 1 17 -2 13 -5z m-254 -11 c-7 -2 -19 -2 -25 0
-7 3 -2 5 12 5 14 0 19 -2 13 -5z m167 -39 c0 -8 -4 -14 -9 -14 -11 0 -22 26
-14 34 9 9 23 -3 23 -20z m60 6 c0 -11 -4 -20 -10 -20 -5 0 -10 9 -10 20 0 11
5 20 10 20 6 0 10 -9 10 -20z m60 0 c0 -11 -4 -20 -10 -20 -5 0 -10 9 -10 20
0 11 5 20 10 20 6 0 10 -9 10 -20z m-540 -16 c0 -8 -7 -14 -15 -14 -15 0 -21
21 -9 33 10 9 24 -2 24 -19z m80 -5 c0 -5 -9 -9 -19 -9 -14 0 -18 5 -14 20 4
16 8 18 19 9 8 -6 14 -15 14 -20z m70 5 c0 -8 -7 -14 -15 -14 -15 0 -21 21 -9
33 10 9 24 -2 24 -19z m70 0 c0 -8 -7 -14 -15 -14 -15 0 -21 21 -9 33 10 9 24
-2 24 -19z m70 6 c0 -11 -7 -20 -15 -20 -8 0 -15 9 -15 20 0 11 7 20 15 20 8
0 15 -9 15 -20z m63 6 c6 -15 -1 -26 -15 -26 -4 0 -8 9 -8 20 0 23 15 27 23 6z
m-505 -13 c-2 -10 -7 -18 -12 -18 -5 0 -10 8 -12 18 -1 9 4 17 13 17 8 0 13
-7 11 -17z m80 0 c2 -8 -5 -13 -17 -13 -12 0 -21 6 -21 16 0 18 31 15 38 -3z
m178 -49 c-13 -14 -27 2 -19 22 4 10 8 10 17 1 9 -8 10 -14 2 -23z m217 0 c-4
-10 -8 -10 -17 -1 -9 8 -10 14 -2 23 13 14 27 -2 19 -22z m67 11 c0 -8 -6 -12
-14 -9 -8 3 -12 12 -9 20 6 17 23 9 23 -11z m63 -1 c-4 -12 -8 -13 -14 -3 -9
15 -2 32 11 24 5 -3 6 -13 3 -21z m-568 -14 c-5 -8 -11 -8 -21 1 -12 10 -12
14 -2 20 16 10 33 -5 23 -21z m72 5 c-7 -7 -16 -10 -21 -5 -12 12 2 30 19 24
11 -5 12 -9 2 -19z m76 -1 c-4 -12 -8 -13 -14 -3 -9 15 -2 32 11 24 5 -3 6
-13 3 -21z m484 20 c-3 -3 -12 -4 -19 -1 -8 3 -5 6 6 6 11 1 17 -2 13 -5z
m-334 -11 c-7 -2 -19 -2 -25 0 -7 3 -2 5 12 5 14 0 19 -2 13 -5z m70 0 c-7 -2
-19 -2 -25 0 -7 3 -2 5 12 5 14 0 19 -2 13 -5z m173 -49 c-5 -13 -10 -14 -18
-6 -6 6 -8 18 -4 28 5 13 10 14 18 6 6 -6 8 -18 4 -28z m64 16 c0 -11 -4 -20
-10 -20 -5 0 -10 9 -10 20 0 11 5 20 10 20 6 0 10 -9 10 -20z m60 0 c0 -11 -4
-20 -10 -20 -5 0 -10 9 -10 20 0 11 5 20 10 20 6 0 10 -9 10 -20z m-624 -13
c1 -11 -5 -17 -17 -17 -10 0 -19 6 -19 13 0 31 31 34 36 4z m74 -3 c0 -8 -7
-14 -15 -14 -15 0 -21 21 -9 33 10 9 24 -2 24 -19z m76 15 c10 -17 -13 -36
-27 -22 -12 12 -4 33 11 33 5 0 12 -5 16 -11z m72 -12 c2 -10 -3 -17 -12 -17
-10 0 -16 9 -16 21 0 24 23 21 28 -4z m72 3 c0 -11 -7 -20 -15 -20 -8 0 -15 9
-15 20 0 11 7 20 15 20 8 0 15 -9 15 -20z m70 -1 c0 -24 -23 -21 -28 4 -2 10
3 17 12 17 10 0 16 -9 16 -21z m70 0 c0 -24 -23 -21 -28 4 -2 10 3 17 12 17
10 0 16 -9 16 -21z m-510 -4 c0 -8 -4 -15 -10 -15 -5 0 -10 7 -10 15 0 8 5 15
10 15 6 0 10 -7 10 -15z m673 -42 c-5 -11 -8 -12 -13 -2 -5 7 -6 19 -3 26 5
11 8 12 13 2 5 -7 6 -19 3 -26z m-567 -9 c-13 -14 -27 2 -19 22 4 10 8 10 17
1 9 -8 10 -14 2 -23z m297 0 c-4 -10 -8 -10 -17 -1 -9 8 -10 14 -2 23 13 14
27 -2 19 -22z m72 7 c-9 -16 -25 -3 -18 15 4 10 9 12 15 6 6 -6 7 -15 3 -21z
m70 0 c-9 -16 -25 -3 -18 15 4 10 9 12 15 6 6 -6 7 -15 3 -21z m-518 -6 c-7
-7 -16 -10 -21 -5 -12 12 2 30 19 24 11 -5 12 -9 2 -19z m586 18 c-7 -2 -19
-2 -25 0 -7 3 -2 5 12 5 14 0 19 -2 13 -5z m-430 -10 c-7 -2 -19 -2 -25 0 -7
3 -2 5 12 5 14 0 19 -2 13 -5z m80 0 c-7 -2 -19 -2 -25 0 -7 3 -2 5 12 5 14 0
19 -2 13 -5z m70 0 c-7 -2 -19 -2 -25 0 -7 3 -2 5 12 5 14 0 19 -2 13 -5z
m255 -36 c2 -10 -3 -17 -12 -17 -10 0 -16 9 -16 21 0 24 23 21 28 -4z m62 3
c0 -11 -4 -20 -10 -20 -5 0 -10 9 -10 20 0 11 5 20 10 20 6 0 10 -9 10 -20z
m63 6 c6 -16 -2 -28 -14 -20 -12 7 -11 34 0 34 5 0 11 -6 14 -14z m-643 -16
c0 -11 -7 -20 -15 -20 -15 0 -21 21 -8 33 12 13 23 7 23 -13z m80 0 c0 -11 -7
-20 -15 -20 -8 0 -15 9 -15 20 0 11 7 20 15 20 8 0 15 -9 15 -20z m70 -1 c0
-24 -23 -21 -28 4 -2 10 3 17 12 17 10 0 16 -9 16 -21z m78 4 c-5 -25 -28 -28
-28 -4 0 12 6 21 16 21 9 0 14 -7 12 -17z m70 0 c-4 -22 -22 -20 -26 1 -2 10
3 16 13 16 10 0 15 -7 13 -17z m76 2 c3 -9 0 -15 -8 -15 -8 0 -16 7 -20 15 -3
9 0 15 8 15 8 0 16 -7 20 -15z m71 -3 c0 -18 -20 -15 -23 4 -3 10 1 15 10 12
7 -3 13 -10 13 -16z m-515 -1 c0 -6 -4 -13 -10 -16 -5 -3 -10 1 -10 9 0 9 5
16 10 16 6 0 10 -4 10 -9z m684 -43 c-9 -14 -23 2 -17 18 4 12 8 13 14 3 4 -7
5 -17 3 -21z m-580 7 c4 -10 -1 -15 -15 -15 -17 0 -18 2 -7 15 16 18 15 18 22
0z m150 -17 c-9 -14 -23 2 -17 18 4 12 8 13 14 3 4 -7 5 -17 3 -21z m76 12 c0
-13 -5 -18 -15 -14 -12 5 -13 10 -4 20 15 19 19 18 19 -6z m73 -6 c-4 -10 -9
-12 -15 -6 -12 12 -1 35 12 27 5 -3 6 -13 3 -21z m70 0 c-4 -12 -8 -13 -14 -3
-9 15 -2 32 11 24 5 -3 6 -13 3 -21z m80 9 c-7 -2 -19 -2 -25 0 -7 3 -2 5 12
5 14 0 19 -2 13 -5z m70 -9 c-3 -9 -9 -12 -12 -7 -3 4 -10 11 -15 16 -5 4 0 7
12 7 15 0 20 -4 15 -16z m-590 -1 c-7 -2 -19 -2 -25 0 -7 3 -2 5 12 5 14 0 19
-2 13 -5z m150 0 c-7 -2 -19 -2 -25 0 -7 3 -2 5 12 5 14 0 19 -2 13 -5z m191
-21 c2 -4 1 -14 -4 -22 -7 -11 -12 -12 -21 -3 -6 6 -8 16 -5 22 8 13 23 14 30
3z m144 -15 c2 -10 -3 -17 -12 -17 -10 0 -16 9 -16 21 0 24 23 21 28 -4z m72
3 c0 -11 -7 -20 -15 -20 -8 0 -15 9 -15 20 0 11 7 20 15 20 8 0 15 -9 15 -20z
m68 3 c-4 -22 -22 -20 -26 1 -2 10 3 16 13 16 10 0 15 -7 13 -17z m62 -4 c0
-11 -4 -17 -10 -14 -5 3 -10 13 -10 21 0 8 5 14 10 14 6 0 10 -9 10 -21z
m-650 -9 c0 -11 -7 -20 -15 -20 -8 0 -15 9 -15 20 0 11 7 20 15 20 8 0 15 -9
15 -20z m75 0 c0 -7 -6 -15 -12 -17 -8 -3 -13 4 -13 17 0 13 5 20 13 18 6 -3
12 -11 12 -18z m75 -1 c0 -24 -23 -21 -28 4 -2 10 3 17 12 17 10 0 16 -9 16
-21z m80 6 c0 -8 -7 -15 -15 -15 -8 0 -15 7 -15 15 0 8 7 15 15 15 8 0 15 -7
15 -15z m150 0 c0 -8 -7 -15 -15 -15 -8 0 -15 7 -15 15 0 8 7 15 15 15 8 0 15
-7 15 -15z m-116 -30 c3 -8 1 -15 -4 -15 -6 0 -10 7 -10 15 0 8 2 15 4 15 2 0
6 -7 10 -15z m81 -7 c6 -4 0 -8 -12 -8 -16 0 -21 4 -16 15 3 9 8 12 12 8 3 -4
11 -11 16 -15z m209 -10 c-9 -14 -23 2 -17 18 4 12 8 13 14 3 4 -7 5 -17 3
-21z m71 2 c-5 -8 -11 -8 -17 -2 -6 6 -7 16 -3 22 5 8 11 8 17 2 6 -6 7 -16 3
-22z m-660 -2 c6 -4 0 -8 -12 -8 -16 0 -21 4 -16 15 3 9 8 12 12 8 3 -4 11
-11 16 -15z m68 -14 c-4 -10 -8 -10 -17 -1 -9 8 -10 14 -2 23 13 14 27 -2 19
-22z m156 9 c-8 -9 -16 -10 -22 -4 -13 13 0 31 19 24 11 -4 12 -8 3 -20z m231
11 c0 -2 -9 -4 -21 -4 -11 0 -18 4 -14 10 5 8 35 3 35 -6z m-300 -2 c0 -14
-11 -21 -26 -15 -8 3 -11 9 -8 14 7 11 34 12 34 1z m363 1 c-7 -2 -19 -2 -25
0 -7 3 -2 5 12 5 14 0 19 -2 13 -5z m177 -33 c0 -11 -4 -20 -10 -20 -5 0 -10
9 -10 20 0 11 5 20 10 20 6 0 10 -9 10 -20z m-506 -21 c-8 -14 -34 -11 -34 4
0 8 3 17 7 20 9 9 34 -13 27 -24z m76 11 c0 -11 -7 -20 -15 -20 -8 0 -15 9
-15 20 0 11 7 20 15 20 8 0 15 -9 15 -20z m76 9 c10 -17 -13 -36 -27 -22 -12
12 -4 33 11 33 5 0 12 -5 16 -11z m72 -6 c-5 -25 -28 -28 -28 -4 0 12 6 21 16
21 9 0 14 -7 12 -17z m70 0 c-5 -25 -28 -28 -28 -4 0 12 6 21 16 21 9 0 14 -7
12 -17z m70 0 c-4 -22 -22 -20 -26 1 -2 10 3 16 13 16 10 0 15 -7 13 -17z m82
2 c0 -8 -7 -15 -15 -15 -8 0 -15 7 -15 15 0 8 7 15 15 15 8 0 15 -7 15 -15z
m-602 -12 c-5 -25 -28 -28 -28 -4 0 12 6 21 16 21 9 0 14 -7 12 -17z m82 4 c0
-8 -3 -17 -7 -20 -9 -9 -34 13 -27 24 8 14 34 11 34 -4z m184 -32 c4 -10 -1
-15 -15 -15 -17 0 -18 2 -7 15 16 18 15 18 22 0z m74 -16 c-17 -10 -28 -2 -21
17 4 11 8 12 20 3 11 -10 11 -14 1 -20z m76 -1 c-3 -4 -11 -5 -19 -2 -11 5
-12 9 -2 19 12 13 31 -1 21 -17z m70 0 c-9 -14 -23 2 -17 18 4 12 8 13 14 3 4
-7 5 -17 3 -21z m69 6 c-4 -10 -9 -12 -15 -6 -12 12 -1 35 12 27 5 -3 6 -13 3
-21z m-521 -16 c-9 -9 -12 -7 -12 12 0 19 3 21 12 12 9 -9 9 -15 0 -24z m83
22 c3 -6 -4 -10 -17 -10 -18 0 -20 2 -8 10 19 12 18 12 25 0z m518 3 c-7 -2
-19 -2 -25 0 -7 3 -2 5 12 5 14 0 19 -2 13 -5z m-440 -10 c-7 -2 -19 -2 -25 0
-7 3 -2 5 12 5 14 0 19 -2 13 -5z m-230 -10 c-7 -2 -19 -2 -25 0 -7 3 -2 5 12
5 14 0 19 -2 13 -5z m557 -29 c0 -8 -7 -14 -15 -14 -15 0 -21 21 -9 33 10 9
24 -2 24 -19z m80 6 c0 -11 -7 -20 -15 -20 -8 0 -15 9 -15 20 0 11 7 20 15 20
8 0 15 -9 15 -20z m70 0 c0 -11 -7 -20 -15 -20 -8 0 -15 9 -15 20 0 11 7 20
15 20 8 0 15 -9 15 -20z m-592 -13 c2 -10 -3 -17 -12 -17 -18 0 -29 16 -21 31
9 14 29 6 33 -14z m76 15 c2 -4 1 -14 -4 -22 -7 -11 -12 -12 -21 -3 -6 6 -8
16 -5 22 8 13 23 14 30 3z m76 -12 c0 -11 -7 -20 -15 -20 -8 0 -15 9 -15 20 0
11 7 20 15 20 8 0 15 -9 15 -20z m78 3 c-4 -22 -22 -20 -26 1 -2 10 3 16 13
16 10 0 15 -7 13 -17z m72 2 c0 -8 -7 -15 -15 -15 -8 0 -15 7 -15 15 0 8 7 15
15 15 8 0 15 -7 15 -15z m70 0 c0 -8 -7 -15 -15 -15 -8 0 -15 7 -15 15 0 8 7
15 15 15 8 0 15 -7 15 -15z m-452 -12 c-5 -25 -28 -28 -28 -4 0 12 6 21 16 21
9 0 14 -7 12 -17z m567 -25 c6 -4 0 -8 -12 -8 -16 0 -21 4 -16 15 3 9 8 12 12
8 3 -4 11 -11 16 -15z m69 -10 c-3 -4 -11 -5 -19 -2 -11 5 -12 9 -2 19 12 13
31 -1 21 -17z m-448 -14 c-13 -14 -27 2 -19 22 4 10 8 10 17 1 9 -8 10 -14 2
-23z m74 16 c0 -13 -5 -18 -15 -14 -11 5 -12 9 -2 20 16 18 17 17 17 -6z m155
10 c3 -5 -1 -10 -10 -10 -9 0 -13 5 -10 10 3 6 8 10 10 10 2 0 7 -4 10 -10z
m70 0 c3 -6 -4 -10 -17 -10 -18 0 -20 2 -8 10 19 12 18 12 25 0z m-452 -25
c-7 -21 -13 -19 -13 6 0 11 4 18 10 14 5 -3 7 -12 3 -20z m310 9 c-3 -9 -9
-12 -12 -7 -3 4 -10 11 -15 16 -5 4 0 7 12 7 15 0 20 -4 15 -16z m-230 -10
c-3 -9 -9 -12 -12 -7 -3 4 -10 11 -15 16 -5 4 0 7 12 7 15 0 20 -4 15 -16z
m-149 -1 c-5 -5 -12 -12 -15 -16 -3 -5 -9 -2 -12 7 -5 12 0 16 15 16 12 0 17
-3 12 -7z m346 -29 c0 -8 -7 -14 -15 -14 -15 0 -21 21 -9 33 10 9 24 -2 24
-19z m70 6 c0 -11 -4 -20 -9 -20 -14 0 -23 18 -16 30 10 17 25 11 25 -10z m70
0 c0 -11 -4 -20 -9 -20 -14 0 -23 18 -16 30 10 17 25 11 25 -10z m76 9 c10
-17 -13 -36 -27 -22 -12 12 -4 33 11 33 5 0 12 -5 16 -11z m72 -6 c-5 -25 -28
-28 -28 -4 0 12 6 21 16 21 9 0 14 -7 12 -17z m78 6 c7 -12 -15 -31 -28 -23
-4 3 -8 12 -8 20 0 17 26 19 36 3z m-596 -19 c0 -11 -7 -20 -15 -20 -8 0 -15
9 -15 20 0 11 7 20 15 20 8 0 15 -9 15 -20z m74 12 c8 -13 -11 -35 -23 -28
-16 10 -14 36 3 36 8 0 17 -4 20 -8z m74 -9 c-4 -22 -22 -20 -26 1 -2 10 3 16
13 16 10 0 15 -7 13 -17z m-230 -10 c-4 -22 -22 -20 -26 1 -2 10 3 16 13 16
10 0 15 -7 13 -17z m268 -39 c-13 -14 -27 2 -19 22 4 10 8 10 17 1 9 -8 10
-14 2 -23z m147 -1 c-5 -11 -8 -12 -13 -2 -5 7 -6 19 -3 26 5 11 8 12 13 2 5
-7 6 -19 3 -26z m71 5 c-9 -14 -23 2 -17 18 4 12 8 13 14 3 4 -7 5 -17 3 -21z
m73 0 c-16 -9 -27 0 -21 17 5 11 9 12 19 2 9 -8 10 -14 2 -19z m76 7 c-7 -21
-13 -19 -13 6 0 11 4 18 10 14 5 -3 7 -12 3 -20z m67 15 c0 -5 -5 -10 -11 -10
-5 0 -7 5 -4 10 3 6 8 10 11 10 2 0 4 -4 4 -10z m-664 -36 c-13 -14 -27 2 -19
22 4 10 8 10 17 1 9 -8 10 -14 2 -23z m144 15 c0 -11 -4 -18 -10 -14 -5 3 -7
12 -3 20 7 21 13 19 13 -6z m-210 -8 c0 -13 -12 -20 -25 -14 -8 2 -11 11 -9
18 6 14 34 10 34 -4z m373 12 c-7 -2 -19 -2 -25 0 -7 3 -2 5 12 5 14 0 19 -2
13 -5z m-230 -10 c-7 -2 -19 -2 -25 0 -7 3 -2 5 12 5 14 0 19 -2 13 -5z m487
-29 c0 -8 -7 -14 -15 -14 -15 0 -21 21 -9 33 10 9 24 -2 24 -19z m77 11 c7
-20 -2 -29 -21 -22 -9 4 -13 13 -10 22 8 19 23 19 31 0z m-447 -15 c0 -11 -7
-20 -15 -20 -15 0 -21 21 -8 33 12 13 23 7 23 -13z m78 3 c-5 -25 -28 -28 -28
-4 0 12 6 21 16 21 9 0 14 -7 12 -17z m72 -4 c0 -24 -23 -21 -28 4 -2 10 3 17
12 17 10 0 16 -9 16 -21z m75 3 c0 -18 -20 -15 -23 4 -3 10 1 15 10 12 7 -3
13 -10 13 -16z m70 -2 c0 -7 -6 -15 -12 -17 -8 -3 -13 4 -13 17 0 13 5 20 13
18 6 -3 12 -11 12 -18z m-525 -10 c0 -11 -4 -20 -9 -20 -14 0 -23 18 -16 30
10 17 25 11 25 -10z m80 0 c0 -11 -7 -20 -15 -20 -8 0 -15 9 -15 20 0 11 7 20
15 20 8 0 15 -9 15 -20z m76 9 c3 -6 1 -16 -5 -22 -9 -9 -14 -8 -21 3 -5 8
-10 18 -10 23 0 11 28 8 36 -4z m478 -24 c3 -8 1 -15 -4 -15 -6 0 -10 7 -10
15 0 8 2 15 4 15 2 0 6 -7 10 -15z m76 0 c0 -8 -8 -15 -17 -14 -11 0 -13 3 -5
6 6 2 10 9 6 14 -3 5 0 9 5 9 6 0 11 -7 11 -15z m-367 -10 c4 -8 2 -17 -3 -20
-6 -4 -10 3 -10 14 0 25 6 27 13 6z m76 -12 c-10 -11 -14 -11 -20 -1 -10 17
-2 28 17 21 11 -4 12 -8 3 -20z m66 -3 c-6 -9 -9 -9 -16 1 -10 17 0 34 13 21
6 -6 7 -16 3 -22z m72 5 c-8 -9 -14 -10 -19 -2 -9 16 0 27 17 21 11 -5 12 -9
2 -19z m-512 -7 c6 -4 0 -8 -12 -8 -16 0 -21 4 -16 15 3 9 8 12 12 8 3 -4 11
-11 16 -15z m68 -14 c-4 -10 -8 -10 -17 -1 -9 8 -10 14 -2 23 13 14 27 -2 19
-22z m79 18 c-7 -2 -10 -8 -6 -13 3 -5 1 -9 -5 -9 -14 0 -23 18 -16 30 3 5 13
6 22 3 11 -4 13 -8 5 -11z m-229 -17 c-12 -32 -23 -14 -14 23 1 2 5 1 11 -3 5
-3 7 -12 3 -20z m310 18 c-7 -2 -19 -2 -25 0 -7 3 -2 5 12 5 14 0 19 -2 13 -5z
m115 -36 c2 -10 -3 -17 -12 -17 -10 0 -16 9 -16 21 0 24 23 21 28 -4z m70 0
c2 -10 -3 -17 -12 -17 -10 0 -16 9 -16 21 0 24 23 21 28 -4z m70 0 c2 -10 -3
-17 -12 -17 -10 0 -16 9 -16 21 0 24 23 21 28 -4z m72 3 c0 -11 -7 -20 -15
-20 -15 0 -21 21 -8 33 12 13 23 7 23 -13z m78 3 c-5 -25 -28 -28 -28 -4 0 12
6 21 16 21 9 0 14 -7 12 -17z m-444 -1 c2 -4 1 -14 -4 -22 -7 -11 -12 -12 -21
-3 -6 6 -8 16 -5 22 8 13 23 14 30 3z m74 -9 c-5 -25 -28 -28 -28 -4 0 12 6
21 16 21 9 0 14 -7 12 -17z m-308 -13 c0 -11 -7 -20 -15 -20 -15 0 -21 21 -8
33 12 13 23 7 23 -13z m80 0 c0 -11 -7 -20 -15 -20 -8 0 -15 9 -15 20 0 11 7
20 15 20 8 0 15 -9 15 -20z m80 5 c0 -8 -7 -15 -15 -15 -8 0 -15 7 -15 15 0 8
7 15 15 15 8 0 15 -7 15 -15z m183 -41 c-4 -10 -8 -10 -17 -1 -9 8 -10 14 -2
23 13 14 27 -2 19 -22z m82 14 c6 -4 0 -8 -12 -8 -16 0 -21 4 -16 15 3 9 8 12
12 8 3 -4 11 -11 16 -15z m211 -14 c-7 -7 -14 -8 -22 0 -7 7 -8 14 0 22 7 7
14 8 22 0 7 -7 8 -14 0 -22z m76 4 c-9 -9 -12 -9 -12 1 0 7 -4 9 -10 6 -5 -3
-10 -2 -10 4 0 13 23 20 35 10 5 -6 5 -13 -3 -21z m-218 -3 c-5 -11 -9 -12
-19 -2 -9 8 -10 14 -2 19 16 9 27 0 21 -17z m-449 -7 c6 -4 0 -8 -12 -8 -16 0
-21 4 -16 15 3 9 8 12 12 8 3 -4 11 -11 16 -15z m69 -3 c-4 -8 -10 -13 -15
-10 -4 3 -6 12 -3 20 4 8 10 13 15 10 4 -3 6 -12 3 -20z m449 18 c-7 -2 -19
-2 -25 0 -7 3 -2 5 12 5 14 0 19 -2 13 -5z m-370 -10 c-7 -2 -19 -2 -25 0 -7
3 -2 5 12 5 14 0 19 -2 13 -5z m81 0 c-5 -5 -12 -12 -15 -16 -3 -5 -9 -2 -12
7 -5 12 0 16 15 16 12 0 17 -3 12 -7z m-307 -9 c-3 -3 -12 -4 -19 -1 -8 3 -5
6 6 6 11 1 17 -2 13 -5z m343 -30 c0 -8 -7 -14 -15 -14 -15 0 -21 21 -9 33 10
9 24 -2 24 -19z m76 3 c1 -9 -4 -17 -12 -17 -8 0 -14 9 -14 21 0 24 22 21 26
-4z m74 3 c0 -11 -7 -20 -15 -20 -8 0 -15 9 -15 20 0 11 7 20 15 20 8 0 15 -9
15 -20z m70 -1 c0 -24 -23 -21 -28 4 -2 10 3 17 12 17 10 0 16 -9 16 -21z m74
13 c7 -11 -11 -38 -20 -29 -14 13 -13 37 1 37 8 0 16 -4 19 -8z m76 -7 c0 -8
-7 -15 -15 -15 -8 0 -15 7 -15 15 0 8 7 15 15 15 8 0 15 -7 15 -15z m-520 -21
c0 -8 -7 -14 -15 -14 -15 0 -21 21 -9 33 10 9 24 -2 24 -19z m74 18 c2 -4 1
-14 -4 -22 -7 -11 -12 -12 -21 -3 -6 6 -8 16 -5 22 8 13 23 14 30 3z m-229
-22 c0 -22 -29 -18 -33 3 -3 14 1 18 15 15 10 -2 18 -10 18 -18z m78 13 c9 -9
-13 -34 -24 -27 -14 8 -11 34 4 34 8 0 17 -3 20 -7z m630 -39 c-4 -10 -8 -10
-17 -1 -9 8 -10 14 -2 23 13 14 27 -2 19 -22z m-223 5 c0 -11 -4 -18 -10 -14
-5 3 -7 12 -3 20 7 21 13 19 13 -6z m75 -9 c-5 -8 -11 -8 -17 -2 -6 6 -7 16
-3 22 5 8 11 8 17 2 6 -6 7 -16 3 -22z m85 14 c0 -2 -9 -4 -21 -4 -11 0 -18 4
-14 10 5 8 35 3 35 -6z m-387 -27 c-3 -5 -10 -4 -15 1 -6 6 -7 16 -3 22 6 9 9
9 16 -1 4 -7 5 -17 2 -22z m81 8 c-5 -11 -9 -12 -19 -2 -9 8 -10 14 -2 19 16
9 27 0 21 -17z m-379 -7 c6 -4 2 -8 -7 -8 -10 0 -18 7 -18 17 0 9 3 12 8 7 4
-5 12 -12 17 -16z m76 8 c5 3 9 1 9 -4 0 -12 -26 -23 -33 -15 -3 3 -3 12 1 21
4 10 7 12 10 4 2 -7 8 -10 13 -6z m69 -8 c0 -18 -2 -20 -9 -8 -6 8 -7 18 -5
22 9 14 14 9 14 -14z m313 15 c-7 -2 -19 -2 -25 0 -7 3 -2 5 12 5 14 0 19 -2
13 -5z m-230 -10 c-7 -2 -19 -2 -25 0 -7 3 -2 5 12 5 14 0 19 -2 13 -5z m343
-28 c1 -8 -4 -15 -12 -15 -14 0 -19 21 -7 33 8 9 16 1 19 -18z m64 5 c0 -11
-4 -20 -9 -20 -11 0 -22 26 -14 34 12 12 23 5 23 -14z m83 14 c9 -10 -4 -34
-19 -34 -8 0 -14 9 -14 20 0 19 19 27 33 14z m-377 -40 c-5 -13 -10 -14 -18
-6 -6 6 -8 18 -4 28 5 13 10 14 18 6 6 -6 8 -18 4 -28z m82 13 c2 -10 -3 -17
-12 -17 -10 0 -16 9 -16 21 0 24 23 21 28 -4z m72 2 c0 -24 -23 -21 -28 4 -2
10 3 17 12 17 10 0 16 -9 16 -21z m-380 -9 c0 -11 -7 -20 -15 -20 -15 0 -21
21 -8 33 12 13 23 7 23 -13z m80 0 c0 -11 -7 -20 -15 -20 -8 0 -15 9 -15 20 0
11 7 20 15 20 8 0 15 -9 15 -20z m78 3 c-5 -25 -28 -28 -28 -4 0 12 6 21 16
21 9 0 14 -7 12 -17z m-238 -8 c0 -8 -6 -15 -13 -15 -8 0 -14 7 -14 15 0 8 6
15 14 15 7 0 13 -7 13 -15z m636 -31 c-13 -14 -27 2 -19 22 4 10 8 10 17 1 9
-8 10 -14 2 -23z m78 11 c-4 -8 -10 -13 -15 -10 -4 3 -6 12 -3 20 4 8 10 13
15 10 4 -3 6 -12 3 -20z m-290 -17 c-3 -4 -11 -5 -19 -2 -11 5 -12 9 -2 19 12
13 31 -1 21 -17z m141 22 c3 -5 -1 -10 -10 -10 -9 0 -13 5 -10 10 3 6 8 10 10
10 2 0 7 -4 10 -10z m-449 -36 c-7 -7 -14 -8 -22 0 -7 7 -8 14 0 22 7 7 14 8
22 0 7 -7 8 -14 0 -22z m77 0 c-4 -10 -8 -10 -17 -1 -9 8 -10 14 -2 23 13 14
27 -2 19 -22z m82 17 c7 -12 -12 -24 -25 -16 -11 7 -4 25 10 25 5 0 11 -4 15
-9z m79 2 c-5 -5 -12 -12 -15 -16 -3 -5 -9 -2 -12 7 -5 12 0 16 15 16 12 0 17
-3 12 -7z m-387 -9 c-3 -3 -12 -4 -19 -1 -8 3 -5 6 6 6 11 1 17 -2 13 -5z m76
-1 c-7 -2 -19 -2 -25 0 -7 3 -2 5 12 5 14 0 19 -2 13 -5z m492 -23 c0 -7 -6
-15 -12 -17 -8 -3 -13 4 -13 17 0 13 5 20 13 18 6 -3 12 -11 12 -18z m73 3
c-5 -25 -28 -28 -28 -4 0 12 6 21 16 21 9 0 14 -7 12 -17z m76 2 c4 -10 -1
-15 -14 -15 -11 0 -20 7 -20 15 0 8 6 15 14 15 8 0 16 -7 20 -15z m-371 -1 c9
-10 -4 -34 -19 -34 -8 0 -14 6 -14 13 0 22 19 35 33 21z m77 -14 c0 -11 -7
-20 -15 -20 -8 0 -15 9 -15 20 0 11 7 20 15 20 8 0 15 -9 15 -20z m73 5 c9
-23 -11 -28 -23 -5 -8 16 -8 20 4 20 7 0 16 -7 19 -15z m-460 -1 c9 -10 -4
-34 -19 -34 -8 0 -14 6 -14 13 0 22 19 35 33 21z m77 -14 c0 -11 -7 -20 -15
-20 -8 0 -15 9 -15 20 0 11 7 20 15 20 8 0 15 -9 15 -20z m78 3 c-4 -22 -22
-20 -26 1 -2 10 3 16 13 16 10 0 15 -7 13 -17z m80 0 c-5 -25 -28 -28 -28 -4
0 12 6 21 16 21 9 0 14 -7 12 -17z m322 -24 c0 -11 -4 -18 -10 -14 -5 3 -7 12
-3 20 7 21 13 19 13 -6z m84 -4 c-3 -7 -12 -11 -19 -8 -11 4 -12 8 -2 18 15
16 28 10 21 -10z m-220 -17 c-9 -14 -23 2 -17 18 4 12 8 13 14 3 4 -7 5 -17 3
-21z m300 17 c-4 -8 -10 -15 -16 -15 -5 0 -7 4 -4 9 4 5 0 12 -6 14 -7 3 -3 6
9 6 16 1 21 -3 17 -14z m-688 -31 c-13 -14 -27 2 -19 22 4 10 8 10 17 1 9 -8
10 -14 2 -23z m74 16 c0 -13 -5 -18 -15 -14 -11 5 -12 9 -2 20 16 18 17 17 17
-6z m84 -12 c-3 -4 -11 -5 -19 -2 -11 5 -12 9 -2 19 12 13 31 -1 21 -17z m309
25 c-7 -2 -19 -2 -25 0 -7 3 -2 5 12 5 14 0 19 -2 13 -5z m-225 -15 c-3 -7
-11 -13 -18 -13 -7 0 -15 6 -17 13 -3 7 4 12 17 12 13 0 20 -5 18 -12z m75 5
c-7 -2 -19 -2 -25 0 -7 3 -2 5 12 5 14 0 19 -2 13 -5z m-386 -9 c-3 -3 -12 -4
-19 -1 -8 3 -5 6 6 6 11 1 17 -2 13 -5z m639 -30 c-5 -13 -10 -14 -18 -6 -6 6
-8 18 -4 28 5 13 10 14 18 6 6 -6 8 -18 4 -28z m82 13 c2 -10 -3 -17 -12 -17
-10 0 -16 9 -16 21 0 24 23 21 28 -4z m-222 -12 c3 -24 -14 -28 -25 -6 -8 14
-8 21 2 24 15 5 20 1 23 -18z m74 5 c0 -11 -7 -20 -15 -20 -8 0 -15 9 -15 20
0 11 7 20 15 20 8 0 15 -9 15 -20z m-300 -16 c0 -17 -26 -19 -36 -3 -7 12 15
31 28 23 4 -3 8 -12 8 -20z m76 3 c1 -11 -5 -17 -17 -17 -10 0 -19 6 -19 13 0
31 31 34 36 4z m74 3 c0 -11 -7 -20 -15 -20 -8 0 -15 9 -15 20 0 11 7 20 15
20 8 0 15 -9 15 -20z m-386 2 c2 -4 1 -14 -4 -22 -7 -11 -12 -12 -21 -3 -6 6
-8 16 -5 22 8 13 23 14 30 3z m74 -9 c-4 -22 -22 -20 -26 1 -2 10 3 16 13 16
10 0 15 -7 13 -17z m82 2 c0 -8 -7 -15 -15 -15 -8 0 -15 7 -15 15 0 8 7 15 15
15 8 0 15 -7 15 -15z m566 -24 c-4 -5 -13 -8 -22 -4 -11 4 -12 8 -3 20 14 16
36 2 25 -16z m-152 -6 c-3 -7 -12 -11 -19 -8 -11 4 -12 8 -2 18 15 16 28 10
21 -10z m-149 -14 c-9 -16 -25 -3 -18 15 4 10 9 12 15 6 6 -6 7 -15 3 -21z
m229 22 c-5 -5 -12 -12 -15 -16 -3 -5 -9 -2 -12 7 -5 12 0 16 15 16 12 0 17
-3 12 -7z m-618 -39 c-13 -14 -27 2 -19 22 4 10 8 10 17 1 9 -8 10 -14 2 -23z
m77 11 c-7 -21 -13 -19 -13 6 0 11 4 18 10 14 5 -3 7 -12 3 -20z m79 -7 c-10
-10 -15 -10 -22 2 -6 9 -5 17 3 22 18 11 33 -10 19 -24z m311 25 c-7 -2 -19
-2 -25 0 -7 3 -2 5 12 5 14 0 19 -2 13 -5z m-229 -18 c-4 -8 -10 -15 -16 -15
-5 0 -7 4 -4 9 4 5 0 12 -6 14 -7 3 -3 6 9 6 16 1 21 -3 17 -14z m79 8 c-7 -2
-19 -2 -25 0 -7 3 -2 5 12 5 14 0 19 -2 13 -5z m261 -11 c2 -4 0 -14 -5 -22
-8 -13 -10 -13 -18 0 -10 15 -6 30 9 30 5 0 11 -4 14 -8z m74 -9 c-5 -25 -28
-28 -28 -4 0 12 6 21 16 21 9 0 14 -7 12 -17z m-220 -16 c2 -10 -3 -17 -12
-17 -10 0 -16 9 -16 21 0 24 23 21 28 -4z m72 2 c0 -24 -23 -21 -28 4 -2 10 3
17 12 17 10 0 16 -9 16 -21z m-382 -12 c2 -10 -3 -17 -12 -17 -18 0 -29 16
-21 31 9 14 29 6 33 -14z m77 2 c0 -7 -8 -15 -17 -17 -18 -3 -25 18 -11 32 10
10 28 1 28 -15z m79 13 c2 -4 1 -14 -4 -22 -7 -11 -12 -12 -21 -3 -6 6 -8 16
-5 22 8 13 23 14 30 3z m76 -13 c0 -24 -23 -21 -28 4 -2 10 3 17 12 17 10 0
16 -9 16 -21z m-386 3 c8 -13 -11 -35 -23 -28 -16 10 -14 36 3 36 8 0 17 -4
20 -8z m74 -9 c-4 -22 -22 -20 -26 1 -2 10 3 16 13 16 10 0 15 -7 13 -17z
m657 -5 c6 -4 0 -8 -12 -8 -16 0 -21 4 -16 15 3 9 8 12 12 8 3 -4 11 -11 16
-15z m-231 -13 c4 -10 -1 -15 -15 -15 -17 0 -18 2 -7 15 16 18 15 18 22 0z
m69 -11 c-4 -10 -9 -12 -15 -6 -12 12 -1 35 12 27 5 -3 6 -13 3 -21z m-146 -2
c-9 -2 -14 -8 -11 -14 4 -7 2 -8 -4 -4 -17 11 -3 36 16 28 16 -6 15 -7 -1 -10z
m226 11 c-7 -2 -19 -2 -25 0 -7 3 -2 5 12 5 14 0 19 -2 13 -5z m-623 -24 c0
-11 -4 -18 -10 -14 -5 3 -7 12 -3 20 7 21 13 19 13 -6z m83 -6 c-4 -11 -8 -13
-11 -5 -2 7 -8 10 -13 6 -5 -3 -9 -1 -9 5 0 11 21 20 32 14 4 -2 4 -11 1 -20z
m79 10 c-6 -2 -10 -9 -6 -14 3 -5 1 -9 -4 -9 -6 0 -12 7 -16 15 -4 11 1 15 17
14 12 0 16 -3 9 -6z m81 0 c-7 -2 -19 -2 -25 0 -7 3 -2 5 12 5 14 0 19 -2 13
-5z m87 3 c0 -9 -30 -14 -35 -6 -4 6 3 10 14 10 12 0 21 -2 21 -4z m330 -22
c0 -8 -7 -14 -15 -14 -15 0 -21 21 -9 33 10 9 24 -2 24 -19z m-75 -4 c0 -7 -6
-15 -12 -17 -8 -3 -13 4 -13 17 0 13 5 20 13 18 6 -3 12 -11 12 -18z m-221 -5
c3 -9 -1 -18 -10 -22 -19 -7 -28 2 -21 22 8 19 23 19 31 0z m76 -5 c0 -11 -7
-20 -15 -20 -15 0 -21 21 -8 33 12 13 23 7 23 -13z m75 0 c0 -7 -6 -15 -12
-17 -8 -3 -13 4 -13 17 0 13 5 20 13 18 6 -3 12 -11 12 -18z m-469 -26 c-5
-13 -10 -14 -18 -6 -6 6 -8 18 -4 28 5 13 10 14 18 6 6 -6 8 -18 4 -28z m82
13 c2 -10 -3 -17 -12 -17 -18 0 -29 16 -21 31 9 14 29 6 33 -14z m76 15 c8
-13 -11 -35 -23 -28 -16 10 -14 36 3 36 8 0 17 -4 20 -8z m80 0 c8 -13 -11
-35 -23 -28 -16 10 -14 36 3 36 8 0 17 -4 20 -8z m-314 -23 c0 -24 -23 -21
-28 4 -2 10 3 17 12 17 10 0 16 -9 16 -21z m653 -14 c-7 -21 -13 -19 -13 6 0
11 4 18 10 14 5 -3 7 -12 3 -20z m-218 -7 c6 -4 0 -8 -12 -8 -16 0 -21 4 -16
15 3 9 8 12 12 8 3 -4 11 -11 16 -15z m68 -14 c-4 -10 -8 -10 -17 -1 -9 8 -10
14 -2 23 13 14 27 -2 19 -22z m230 29 c-7 -2 -19 -2 -25 0 -7 3 -2 5 12 5 14
0 19 -2 13 -5z m-473 -24 c0 -11 -4 -18 -10 -14 -5 3 -7 12 -3 20 7 21 13 19
13 -6z m77 1 c-1 -12 -5 -16 -10 -11 -5 5 -6 14 -3 20 11 16 15 13 13 -9z
m246 13 c-7 -2 -19 -2 -25 0 -7 3 -2 5 12 5 14 0 19 -2 13 -5z m-550 -32 c-4
-15 -8 -17 -17 -8 -9 8 -10 15 -2 23 15 16 25 8 19 -15z m737 3 c0 -8 -7 -14
-15 -14 -15 0 -21 21 -9 33 10 9 24 -2 24 -19z m-657 0 c-3 -9 -9 -12 -12 -7
-3 4 -10 11 -15 16 -5 4 0 7 12 7 15 0 20 -4 15 -16z m80 9 c-7 -2 -19 -2 -25
0 -7 3 -2 5 12 5 14 0 19 -2 13 -5z m503 -4 c10 -17 -13 -36 -27 -22 -12 12
-4 33 11 33 5 0 12 -5 16 -11z m-78 -16 c-4 -22 -22 -20 -26 1 -2 10 3 16 13
16 10 0 15 -7 13 -17z m-308 -19 c0 -8 -7 -14 -15 -14 -15 0 -21 21 -9 33 10
9 24 -2 24 -19z m83 20 c9 -10 -4 -34 -19 -34 -8 0 -14 6 -14 13 0 22 19 35
33 21z m75 -11 c-4 -22 -22 -20 -26 1 -2 10 3 16 13 16 10 0 15 -7 13 -17z
m79 2 c0 -8 -6 -15 -14 -15 -7 0 -13 7 -13 15 0 8 6 15 13 15 8 0 14 -7 14
-15z m-471 -20 c1 -8 -4 -15 -12 -15 -14 0 -19 21 -7 33 8 9 16 1 19 -18z m78
17 c2 -4 1 -14 -4 -22 -7 -11 -12 -12 -21 -3 -6 6 -8 16 -5 22 8 13 23 14 30
3z m80 0 c8 -13 -11 -35 -23 -28 -16 10 -14 36 3 36 8 0 17 -4 20 -8z m-236
-19 c-4 -22 -22 -20 -26 1 -2 10 3 16 13 16 10 0 15 -7 13 -17z m734 -15 c-9
-9 -12 -9 -12 1 0 7 -4 9 -10 6 -5 -3 -10 -2 -10 4 0 13 23 20 35 10 5 -6 5
-13 -3 -21z m-306 -24 c-13 -14 -27 2 -19 22 4 10 8 10 17 1 9 -8 10 -14 2
-23z m77 11 c-7 -21 -13 -19 -13 6 0 11 4 18 10 14 5 -3 7 -12 3 -20z m-243
-7 c0 -16 -3 -19 -11 -11 -6 6 -8 16 -5 22 11 17 16 13 16 -11z m323 15 c-7
-2 -19 -2 -25 0 -7 3 -2 5 12 5 14 0 19 -2 13 -5z m-550 -28 c-7 -21 -13 -19
-13 6 0 11 4 18 10 14 5 -3 7 -12 3 -20z m320 18 c-7 -2 -19 -2 -25 0 -7 3 -2
5 12 5 14 0 19 -2 13 -5z m417 -13 c0 -11 -4 -20 -9 -20 -14 0 -23 18 -16 30
10 17 25 11 25 -10z m-657 3 c-7 -2 -19 -2 -25 0 -7 3 -2 5 12 5 14 0 19 -2
13 -5z m80 0 c-7 -2 -19 -2 -25 0 -7 3 -2 5 12 5 14 0 19 -2 13 -5z m503 -10
c-4 -25 -26 -28 -26 -4 0 12 6 21 14 21 8 0 13 -8 12 -17z m-226 -19 c0 -8 -7
-14 -15 -14 -15 0 -21 21 -9 33 10 9 24 -2 24 -19z m78 9 c-5 -25 -28 -28 -28
-4 0 12 6 21 16 21 9 0 14 -7 12 -17z m72 4 c0 -8 -6 -14 -13 -14 -8 0 -14 6
-14 14 0 7 6 13 14 13 7 0 13 -6 13 -13z m-310 -17 c0 -11 -6 -20 -14 -20 -12
0 -14 14 -7 38 1 1 6 2 11 2 6 0 10 -9 10 -20z m78 3 c-5 -25 -28 -28 -28 -4
0 12 6 21 16 21 9 0 14 -7 12 -17z m-310 -16 c2 -10 -3 -17 -11 -17 -16 0 -30
24 -19 34 10 10 27 1 30 -17z m76 15 c2 -4 1 -14 -4 -22 -7 -11 -12 -12 -21
-3 -6 6 -8 16 -5 22 8 13 23 14 30 3z m76 -7 c0 -8 -7 -15 -15 -15 -8 0 -15 7
-15 15 0 8 7 15 15 15 8 0 15 -7 15 -15z m504 0 c4 -10 -1 -15 -15 -15 -17 0
-18 2 -7 15 16 18 15 18 22 0z m-736 -12 c-5 -25 -28 -28 -28 -4 0 12 6 21 16
21 9 0 14 -7 12 -17z m353 -33 c-3 -3 -9 -9 -13 -14 -5 -5 -8 3 -8 18 0 22 2
25 14 14 8 -7 11 -15 7 -18z m66 -2 c-3 -7 -5 -2 -5 12 0 14 2 19 5 13 2 -7 2
-19 0 -25z m233 17 c0 -8 -2 -15 -4 -15 -2 0 -6 7 -10 15 -3 8 -1 15 4 15 6 0
10 -7 10 -15z m-463 -27 c-16 -9 -27 0 -21 17 5 11 9 12 19 2 9 -8 10 -14 2
-19z m-153 -3 c-3 -7 -12 -11 -19 -8 -11 4 -12 8 -2 18 15 16 28 10 21 -10z
m239 18 c-7 -2 -19 -2 -25 0 -7 3 -2 5 12 5 14 0 19 -2 13 -5z m424 -11 c0
-10 -6 -19 -13 -19 -9 0 -11 13 -5 35 1 1 5 2 10 2 6 0 9 -8 8 -18z m81 1 c-5
-25 -28 -28 -28 -4 0 12 6 21 16 21 9 0 14 -7 12 -17z m-665 0 c-7 -2 -19 -2
-25 0 -7 3 -2 5 12 5 14 0 19 -2 13 -5z m505 -10 c-4 -22 -22 -20 -26 1 -2 10
3 16 13 16 10 0 15 -7 13 -17z m-150 -10 c-5 -25 -28 -28 -28 -4 0 12 6 21 16
21 9 0 14 -7 12 -17z m79 3 c-5 -16 -27 -19 -27 -3 0 7 7 14 15 14 9 0 14 -5
12 -11z m-317 -22 c0 -8 -7 -14 -15 -14 -15 0 -21 21 -9 33 10 9 24 -2 24 -19z
m83 20 c9 -10 -4 -34 -19 -34 -8 0 -14 9 -14 20 0 19 19 27 33 14z m75 -13
c-4 -19 -22 -18 -26 2 -2 7 4 14 13 14 9 0 15 -7 13 -16z m-310 -14 c2 -10 -3
-17 -11 -17 -16 0 -30 24 -19 34 10 10 27 1 30 -17z m77 3 c0 -22 -29 -18 -33
3 -3 14 1 18 15 15 10 -2 18 -10 18 -18z m-155 -11 c0 -24 -23 -21 -28 4 -2
10 3 17 12 17 10 0 16 -9 16 -21z m670 5 c0 -2 -9 -4 -21 -4 -11 0 -18 4 -14
10 5 8 35 3 35 -6z m-167 -19 c-7 -21 -13 -19 -13 6 0 11 4 18 10 14 5 -3 7
-12 3 -20z m227 8 c0 -10 -4 -14 -8 -8 -4 6 -11 13 -16 18 -5 4 -2 7 7 7 10 0
17 -8 17 -17z m-393 -25 c-3 -7 -5 -2 -5 12 0 14 2 19 5 13 2 -7 2 -19 0 -25z
m247 25 c-5 -5 -12 -12 -15 -16 -3 -5 -9 -2 -12 7 -5 12 0 16 15 16 12 0 17
-3 12 -7z m-400 -28 c-4 -8 -10 -13 -15 -10 -4 3 -6 12 -3 20 4 8 10 13 15 10
4 -3 6 -12 3 -20z m253 19 c-3 -3 -12 -4 -19 -1 -8 3 -5 6 6 6 11 1 17 -2 13
-5z m339 -30 c-5 -13 -10 -14 -18 -6 -6 6 -8 18 -4 28 5 13 10 14 18 6 6 -6 8
-18 4 -28z m-746 5 c0 -11 -4 -18 -10 -14 -5 3 -7 12 -3 20 7 21 13 19 13 -6z
m243 14 c-7 -2 -19 -2 -25 0 -7 3 -2 5 12 5 14 0 19 -2 13 -5z m347 -17 c0 -7
-7 -13 -15 -13 -15 0 -20 18 -9 30 9 9 24 -2 24 -17z m69 7 c-12 -14 -12 -16
0 -8 10 5 12 4 7 -3 -11 -19 -26 -14 -26 8 0 12 7 20 16 20 14 0 15 -2 3 -17z
m-576 0 c-7 -2 -19 -2 -25 0 -7 3 -2 5 12 5 14 0 19 -2 13 -5z m433 -4 c3 -6
1 -16 -5 -22 -9 -9 -14 -8 -21 3 -9 15 -4 30 10 30 5 0 12 -5 16 -11z m-156
-19 c0 -11 -7 -20 -15 -20 -15 0 -21 21 -8 33 12 13 23 7 23 -13z m78 1 c-4
-19 -22 -18 -26 2 -2 7 4 14 13 14 9 0 15 -7 13 -16z m-235 3 c9 -10 -4 -34
-19 -34 -8 0 -14 6 -14 13 0 22 19 35 33 21z m75 -11 c-4 -22 -22 -20 -26 1
-2 10 3 16 13 16 10 0 15 -7 13 -17z m-228 -17 c0 -7 -7 -13 -15 -13 -15 0
-20 18 -9 30 9 9 24 -2 24 -17z m75 4 c0 -21 -28 -19 -31 3 -2 12 3 17 14 15
9 -2 17 -10 17 -18z m578 -5 c-7 -21 -13 -19 -13 6 0 11 4 18 10 14 5 -3 7
-12 3 -20z m-729 7 c2 -4 0 -14 -5 -22 -8 -13 -10 -13 -18 0 -10 15 -6 30 9
30 5 0 11 -4 14 -8z m573 -10 c-10 -2 -14 -9 -11 -15 5 -9 4 -9 -6 0 -17 15
-4 34 18 25 16 -6 16 -7 -1 -10z m73 -2 c0 -5 -2 -10 -4 -10 -3 0 -8 5 -11 10
-3 6 -1 10 4 10 6 0 11 -4 11 -10z m128 -28 c-5 -23 -28 -27 -28 -4 0 10 7 19
15 19 9 0 15 -7 13 -15z m-748 -7 c0 -8 -4 -15 -10 -15 -5 0 -7 7 -4 15 4 8 8
15 10 15 2 0 4 -7 4 -15z m156 8 c-15 -4 -16 -7 -5 -15 12 -8 12 -9 0 -6 -25
7 -24 28 1 27 19 -1 20 -2 4 -6z m88 0 c-5 -5 -12 -12 -15 -16 -3 -5 -9 -2
-12 7 -5 12 0 16 15 16 12 0 17 -3 12 -7z m344 -10 c-4 -22 -22 -20 -26 1 -2
10 3 16 13 16 10 0 15 -7 13 -17z m82 2 c0 -8 -7 -15 -15 -15 -8 0 -15 7 -15
15 0 8 7 15 15 15 8 0 15 -7 15 -15z m-587 -2 c-7 -2 -19 -2 -25 0 -7 3 -2 5
12 5 14 0 19 -2 13 -5z m357 -13 c0 -11 -6 -20 -14 -20 -12 0 -14 14 -7 38 1
1 6 2 11 2 6 0 10 -9 10 -20z m80 5 c0 -8 -7 -15 -15 -15 -8 0 -15 7 -15 15 0
8 7 15 15 15 8 0 15 -7 15 -15z m-240 -15 c0 -11 -7 -20 -15 -20 -16 0 -16 20
0 32 14 11 15 10 15 -12z m80 0 c0 -11 -7 -20 -15 -20 -8 0 -15 9 -15 20 0 11
7 20 15 20 8 0 15 -9 15 -20z m-157 4 c9 -10 -4 -34 -19 -34 -8 0 -14 6 -14
13 0 22 19 35 33 21z m-157 -40 c-5 -13 -10 -14 -18 -6 -6 6 -8 18 -4 28 5 13
10 14 18 6 6 -6 8 -18 4 -28z m82 19 c-5 -25 -28 -28 -28 -4 0 12 6 21 16 21
9 0 14 -7 12 -17z m497 7 c3 -5 1 -10 -4 -10 -6 0 -11 5 -11 10 0 6 2 10 4 10
3 0 8 -4 11 -10z m-650 -20 c0 -7 -6 -15 -12 -17 -8 -3 -13 4 -13 17 0 13 5
20 13 18 6 -3 12 -11 12 -18z m729 5 c-4 -8 -8 -15 -10 -15 -2 0 -4 7 -4 15 0
8 4 15 10 15 5 0 7 -7 4 -15z m-314 -5 c0 -5 -5 -10 -11 -10 -5 0 -7 5 -4 10
3 6 8 10 11 10 2 0 4 -4 4 -10z m163 3 c-7 -2 -19 -2 -25 0 -7 3 -2 5 12 5 14
0 19 -2 13 -5z m-311 -17 c7 4 8 2 4 -4 -12 -19 -36 -15 -29 5 4 11 8 13 11 5
2 -7 9 -9 14 -6z m81 -3 c-7 -2 -19 -2 -25 0 -7 3 -2 5 12 5 14 0 19 -2 13 -5z
m347 -7 c0 -18 -16 -29 -30 -21 -13 8 -1 35 16 35 8 0 14 -6 14 -14z m80 -1
c0 -6 -7 -12 -15 -12 -8 0 -15 6 -15 12 0 6 7 12 15 12 8 0 15 -6 15 -12z
m-587 -12 c-4 -11 -8 -13 -11 -5 -2 7 -9 9 -14 6 -7 -4 -8 -2 -4 4 12 19 36
15 29 -5z m352 -3 c0 -7 -6 -15 -12 -17 -8 -3 -13 4 -13 17 0 13 5 20 13 18 6
-3 12 -11 12 -18z m75 3 c0 -7 -6 -13 -13 -13 -8 0 -14 6 -14 13 0 8 6 14 14
14 7 0 13 -6 13 -14z m-497 0 c-7 -2 -19 -2 -25 0 -7 3 -2 5 12 5 14 0 19 -2
13 -5z m345 -10 c-5 -25 -28 -28 -28 -4 0 12 6 21 16 21 9 0 14 -7 12 -17z
m-425 0 c-7 -2 -19 -2 -25 0 -7 3 -2 5 12 5 14 0 19 -2 13 -5z m267 -13 c0
-11 -7 -20 -15 -20 -15 0 -21 21 -8 33 12 13 23 7 23 -13z m80 5 c0 -8 -7 -15
-15 -15 -8 0 -15 7 -15 15 0 8 7 15 15 15 8 0 15 -7 15 -15z m-154 -6 c8 -14
-11 -33 -25 -25 -11 7 -4 36 9 36 5 0 12 -5 16 -11z m-156 -19 c0 -11 -6 -20
-14 -20 -12 0 -14 14 -7 38 1 1 6 2 11 2 6 0 10 -9 10 -20z m78 3 c-5 -25 -28
-28 -28 -4 0 12 6 21 16 21 9 0 14 -7 12 -17z m569 -5 c-3 -8 -6 -5 -6 6 -1
11 2 17 5 13 3 -3 4 -12 1 -19z m80 16 c-3 -3 -12 -4 -19 -1 -8 3 -5 6 6 6 11
1 17 -2 13 -5z m-797 -30 c0 -8 -6 -14 -14 -14 -12 0 -14 10 -7 38 3 10 21
-11 21 -24z m643 19 c-7 -2 -19 -2 -25 0 -7 3 -2 5 12 5 14 0 19 -2 13 -5z
m-313 -24 c0 -11 -4 -18 -10 -14 -5 3 -7 12 -3 20 7 21 13 19 13 -6z m230 11
c0 -5 -2 -10 -4 -10 -3 0 -8 5 -11 10 -3 6 -1 10 4 10 6 0 11 -4 11 -10z
m-137 -7 c-7 -2 -19 -2 -25 0 -7 3 -2 5 12 5 14 0 19 -2 13 -5z m343 -4 c8
-14 -11 -33 -25 -25 -11 7 -4 36 9 36 5 0 12 -5 16 -11z m-581 -9 c3 -5 1 -10
-4 -10 -6 0 -11 5 -11 10 0 6 2 10 4 10 3 0 8 -4 11 -10z m79 -5 c-4 -8 -8
-15 -10 -15 -2 0 -4 7 -4 15 0 8 4 15 10 15 5 0 7 -7 4 -15z m346 -5 c0 -11
-7 -20 -15 -20 -15 0 -21 21 -8 33 12 13 23 7 23 -13z m77 3 c0 -7 -6 -13 -12
-13 -6 0 -12 6 -12 13 0 8 6 14 12 14 6 0 12 -6 12 -14z m-152 -13 c0 -7 -6
-15 -12 -17 -8 -3 -13 4 -13 17 0 13 5 20 13 18 6 -3 12 -11 12 -18z m-422 3
c-7 -2 -19 -2 -25 0 -7 3 -2 5 12 5 14 0 19 -2 13 -5z m267 -13 c0 -11 -7 -20
-15 -20 -15 0 -21 21 -8 33 12 13 23 7 23 -13z m80 5 c0 -8 -6 -15 -13 -15 -8
0 -14 7 -14 15 0 8 6 15 14 15 7 0 13 -7 13 -15z m-427 -2 c-7 -2 -19 -2 -25
0 -7 3 -2 5 12 5 14 0 19 -2 13 -5z m272 -13 c0 -7 -6 -15 -12 -17 -8 -3 -13
4 -13 17 0 13 5 20 13 18 6 -3 12 -11 12 -18z m-77 -7 c-5 -25 -28 -28 -28 -4
0 12 6 21 16 21 9 0 14 -7 12 -17z m412 -4 c0 -11 -4 -18 -10 -14 -5 3 -7 12
-3 20 7 21 13 19 13 -6z m-494 -4 c-3 -20 -20 -20 -24 -1 -2 9 3 16 11 16 9 0
14 -7 13 -15z m428 -10 c-3 -7 -12 -11 -20 -8 -17 6 -18 20 -1 26 18 6 27 -1
21 -18z m149 18 c-7 -2 -19 -2 -25 0 -7 3 -2 5 12 5 14 0 19 -2 13 -5z m-728
-23 c0 -22 -21 -22 -22 1 -1 12 3 19 10 16 7 -2 12 -10 12 -17z m79 5 c-4 -8
-12 -15 -18 -15 -7 0 -13 7 -13 15 0 8 8 15 18 15 12 0 16 -5 13 -15z m271 -5
c3 -5 1 -10 -4 -10 -6 0 -11 5 -11 10 0 6 2 10 4 10 3 0 8 -4 11 -10z m420
-10 c-3 -5 -10 -10 -16 -10 -5 0 -9 5 -9 10 0 6 7 10 16 10 8 0 12 -4 9 -10z"/>
<path d="M4582 4651 l-21 -29 40 -6 c60 -10 72 3 34 36 l-32 27 -21 -28z"/>
</g>
</svg>
